<svg width="1559" height="890" viewBox="0 0 1559 890" fill="none" xmlns="http://www.w3.org/2000/svg">
<path d="M200.191 67.0261C201.49 35.1186 178.474 6.92886 166.803 -3.17758L1747.82 -28.7173L2043.24 866.427L1956.27 889.585L1346.55 767.069C1286.44 696.241 1180.01 651.064 1130.24 628.859C1088.58 607.725 993.43 585.086 951.061 576.408C905.118 563.238 793.175 553.911 742.946 550.893L619.9 543.186L144.064 492.58C123.49 490.414 78.1915 470.923 65.9194 465.328C53.6473 459.734 21.3428 442.95 8.34877 418.766C-4.64523 394.583 -1.75767 374.37 13.041 341.705C24.88 315.572 56.1137 280.525 70.2507 266.267C75.2438 260.673 90.5358 244.25 111.759 223.315C132.983 202.38 157.78 169.474 167.525 155.638C184.129 130.552 200.191 100.413 200.191 67.0261Z" fill="url(#paint0_linear_593_6622)"/>
<defs>
<linearGradient id="paint0_linear_593_6622" x1="840.19" y1="-568.554" x2="1101.77" y2="1016.59" gradientUnits="userSpaceOnUse">
<stop stop-color="#0C216E"/>
<stop offset="1" stop-color="#0C216E" stop-opacity="0"/>
</linearGradient>
</defs>
</svg>
