<svg width="262" height="67" viewBox="0 0 262 67" fill="none" xmlns="http://www.w3.org/2000/svg">
<g clip-path="url(#clip0_42_29720)">
<path d="M49.9873 53.3515C49.8561 53.6988 49.7124 54.0396 49.5687 54.3741C49.1813 55.2552 48.7377 56.1042 48.2441 56.9145C47.813 57.622 47.3444 58.3037 46.8446 58.9533C46.2323 59.7444 45.5638 60.484 44.8515 61.1658C41.209 64.6581 36.3418 66.7033 30.9624 66.3432C23.921 65.8801 17.5981 61.2944 15.2551 54.522C14.8427 53.3257 14.5553 52.0716 14.4054 50.7531C13.6994 44.5016 16.3672 38.3981 19.9973 33.5873C20.7345 32.6097 21.5155 31.6321 22.3902 30.7767C22.1403 30.9182 14.093 35.6583 13.0121 48.8301C12.7809 47.3251 12.6872 45.7687 12.7559 44.1736C12.9309 40.1282 14.0618 36.385 16.1111 33.0342C18.3103 29.439 20.5846 25.8952 22.8213 22.3321C23.821 20.7435 24.8082 19.1549 25.7891 17.5535C28.2695 13.4888 30.3001 9.16033 31.3935 4.38169C31.6934 3.06322 31.8933 1.7126 32.137 0.381271C32.1932 0.361976 32.2494 0.33625 32.3057 0.316956C33.1491 3.2819 34.1738 6.20825 34.7861 9.22464C35.5421 12.9485 34.7923 16.5952 33.5178 20.1004C33.3928 20.4412 33.2678 20.7757 33.1304 21.1101C32.087 23.7149 30.7562 26.1332 29.3442 28.5C28.8131 29.3875 28.2758 30.2686 27.7322 31.1498C26.5076 33.15 25.2393 35.1309 24.1771 37.234C22.6714 40.2118 22.0903 43.1768 22.3965 46.0388C22.5027 47.0228 22.7151 47.994 23.0338 48.9458C23.0338 48.9458 23.0338 48.9523 23.0338 48.9587C23.7523 51.3448 24.9269 53.5315 26.4514 55.3967C27.6697 56.8888 29.113 58.1751 30.7249 59.2042C30.7312 59.2042 30.7437 59.217 30.7499 59.217C31.4934 59.7122 32.2807 60.1367 33.1117 60.4712C33.2054 60.5098 33.2991 60.5484 33.3928 60.5805C33.4803 60.6127 33.5615 60.6448 33.6427 60.6705C33.6615 60.677 33.674 60.6834 33.6927 60.6898C33.7677 60.7156 33.8427 60.7413 33.9239 60.767C33.9614 60.7799 33.9926 60.7927 34.0301 60.7992C34.0926 60.8185 34.1613 60.8442 34.2238 60.8635C34.28 60.8828 34.3425 60.9021 34.3987 60.9149C34.4487 60.9278 34.4987 60.9407 34.5487 60.9535C34.5549 60.9535 34.5612 60.9535 34.5737 60.96C34.6236 60.9728 34.6674 60.9857 34.7174 60.9986C34.7986 61.0178 34.8736 61.0371 34.9548 61.0564C35.0797 61.0886 35.2047 61.1143 35.3359 61.14C35.3859 61.1529 35.4421 61.1658 35.4921 61.1722C35.6795 61.2108 35.8732 61.243 36.0669 61.2687C36.1731 61.2815 36.2793 61.3008 36.3918 61.3137C36.5855 61.3394 36.7792 61.3587 36.9791 61.3716C37.0728 61.378 37.1603 61.3844 37.254 61.3844C37.2853 61.3844 37.3165 61.3844 37.354 61.3844C37.4415 61.3844 37.5227 61.3909 37.6102 61.3909C37.7164 61.3909 37.8226 61.3909 37.9288 61.3909C43.2708 61.3909 47.8755 58.0979 49.9935 53.345L49.9873 53.3515Z" fill="#005FB1"/>
<mask id="mask0_42_29720" style="mask-type:luminance" maskUnits="userSpaceOnUse" x="12" y="0" width="38" height="67">
<path d="M49.9873 53.3515C49.8561 53.6988 49.7124 54.0396 49.5687 54.3741C49.1813 55.2552 48.7377 56.1042 48.2441 56.9145C47.813 57.622 47.3444 58.3037 46.8446 58.9533C46.2323 59.7444 45.5638 60.484 44.8515 61.1658C41.209 64.6581 36.3418 66.7033 30.9624 66.3432C23.921 65.8801 17.5981 61.2944 15.2551 54.522C14.8427 53.3257 14.5553 52.0716 14.4054 50.7531C13.6994 44.5016 16.3672 38.3981 19.9973 33.5873C20.7345 32.6097 21.5155 31.6321 22.3902 30.7767C22.1403 30.9182 14.093 35.6583 13.0121 48.8301C12.7809 47.3251 12.6872 45.7687 12.7559 44.1736C12.9309 40.1282 14.0618 36.385 16.1111 33.0342C18.3103 29.439 20.5846 25.8952 22.8213 22.3321C23.821 20.7435 24.8082 19.1549 25.7891 17.5535C28.2695 13.4888 30.3001 9.16033 31.3935 4.38169C31.6934 3.06322 31.8933 1.7126 32.137 0.381271C32.1932 0.361976 32.2494 0.33625 32.3057 0.316956C33.1491 3.2819 34.1738 6.20825 34.7861 9.22464C35.5421 12.9485 34.7923 16.5952 33.5178 20.1004C33.3928 20.4412 33.2678 20.7757 33.1304 21.1101C32.087 23.7149 30.7562 26.1332 29.3442 28.5C28.8131 29.3875 28.2758 30.2686 27.7322 31.1498C26.5076 33.15 25.2393 35.1309 24.1771 37.234C22.6714 40.2118 22.0903 43.1768 22.3965 46.0388C22.5027 47.0228 22.7151 47.994 23.0338 48.9458C23.0338 48.9458 23.0338 48.9523 23.0338 48.9587C23.7523 51.3448 24.9269 53.5315 26.4514 55.3967C27.6697 56.8888 29.113 58.1751 30.7249 59.2042C30.7312 59.2042 30.7437 59.217 30.7499 59.217C31.4934 59.7122 32.2807 60.1367 33.1117 60.4712C33.2054 60.5098 33.2991 60.5484 33.3928 60.5805C33.4803 60.6127 33.5615 60.6448 33.6427 60.6705C33.6615 60.677 33.674 60.6834 33.6927 60.6898C33.7677 60.7156 33.8427 60.7413 33.9239 60.767C33.9614 60.7799 33.9926 60.7927 34.0301 60.7992C34.0926 60.8185 34.1613 60.8442 34.2238 60.8635C34.28 60.8828 34.3425 60.9021 34.3987 60.9149C34.4487 60.9278 34.4987 60.9407 34.5487 60.9535C34.5549 60.9535 34.5612 60.9535 34.5737 60.96C34.6236 60.9728 34.6674 60.9857 34.7174 60.9986C34.7986 61.0178 34.8736 61.0371 34.9548 61.0564C35.0797 61.0886 35.2047 61.1143 35.3359 61.14C35.3859 61.1529 35.4421 61.1658 35.4921 61.1722C35.6795 61.2108 35.8732 61.243 36.0669 61.2687C36.1731 61.2815 36.2793 61.3008 36.3918 61.3137C36.5855 61.3394 36.7792 61.3587 36.9791 61.3716C37.0728 61.378 37.1603 61.3844 37.254 61.3844C37.2853 61.3844 37.3165 61.3844 37.354 61.3844C37.4415 61.3844 37.5227 61.3909 37.6102 61.3909C37.7164 61.3909 37.8226 61.3909 37.9288 61.3909C43.2708 61.3909 47.8755 58.0979 49.9935 53.345L49.9873 53.3515Z" fill="white"/>
</mask>
<g mask="url(#mask0_42_29720)">
<path d="M49.9872 0.297668H12.6809V7.49456H49.9872V0.297668Z" fill="#005FB1"/>
<path d="M49.9872 7.49457H12.6809V8.08627H49.9872V7.49457Z" fill="#005FB1"/>
<path d="M49.9872 8.08624H12.6809V8.67794H49.9872V8.08624Z" fill="#005FB1"/>
<path d="M49.9872 8.67798H12.6809V9.26968H49.9872V8.67798Z" fill="#005FB1"/>
<path d="M49.9872 9.26965H12.6809V9.86136H49.9872V9.26965Z" fill="#005FB1"/>
<path d="M49.9872 9.86139H12.6809V10.4531H49.9872V9.86139Z" fill="#005FB1"/>
<path d="M49.9872 10.4531H12.6809V11.0448H49.9872V10.4531Z" fill="#005FB1"/>
<path d="M49.9872 11.0448H12.6809V11.6365H49.9872V11.0448Z" fill="#005FB1"/>
<path d="M49.9872 11.6365H12.6809V12.2282H49.9872V11.6365Z" fill="#005FB1"/>
<path d="M49.9872 12.2281H12.6809V12.8199H49.9872V12.2281Z" fill="#005FB1"/>
<path d="M49.9872 12.8199H12.6809V13.4116H49.9872V12.8199Z" fill="#005FB1"/>
<path d="M49.9872 13.4116H12.6809V14.0033H49.9872V13.4116Z" fill="#005FB1"/>
<path d="M49.9872 14.0033H12.6809V14.595H49.9872V14.0033Z" fill="#005FB1"/>
<path d="M49.9872 14.595H12.6809V15.1867H49.9872V14.595Z" fill="#005FB1"/>
<path d="M49.9872 15.1867H12.6809V15.7784H49.9872V15.1867Z" fill="#005FB1"/>
<path d="M49.9872 15.7784H12.6809V16.3701H49.9872V15.7784Z" fill="#005FB1"/>
<path d="M49.9872 16.3701H12.6809V16.9618H49.9872V16.3701Z" fill="#005FB1"/>
<path d="M49.9872 16.9618H12.6809V17.5535H49.9872V16.9618Z" fill="#005FB1"/>
<path d="M49.9872 17.5535H12.6809V18.1452H49.9872V17.5535Z" fill="#005FB1"/>
<path d="M49.9872 18.1452H12.6809V18.7369H49.9872V18.1452Z" fill="#005FB1"/>
<path d="M49.9872 18.7369H12.6809V19.3286H49.9872V18.7369Z" fill="#005FB1"/>
<path d="M49.9872 19.3286H12.6809V19.9203H49.9872V19.3286Z" fill="#005FB1"/>
<path d="M49.9872 19.9203H12.6809V20.512H49.9872V19.9203Z" fill="#005FB1"/>
<path d="M49.9872 20.512H12.6809V21.1037H49.9872V20.512Z" fill="#005FB1"/>
<path d="M49.9872 21.1037H12.6809V21.6954H49.9872V21.1037Z" fill="#005FB1"/>
<path d="M49.9872 21.6954H12.6809V22.2871H49.9872V21.6954Z" fill="#005FB1"/>
<path d="M49.9872 22.2871H12.6809V22.8788H49.9872V22.2871Z" fill="#005FB1"/>
<path d="M49.9872 22.8788H12.6809V23.4705H49.9872V22.8788Z" fill="#005FB1"/>
<path d="M49.9872 23.4705H12.6809V24.0622H49.9872V23.4705Z" fill="#005FB1"/>
<path d="M49.9872 24.0622H12.6809V24.6539H49.9872V24.0622Z" fill="#005FB1"/>
<path d="M49.9872 24.6539H12.6809V25.2456H49.9872V24.6539Z" fill="#005FB1"/>
<path d="M49.9872 25.2456H12.6809V25.8373H49.9872V25.2456Z" fill="#005FB1"/>
<path d="M49.9872 25.8373H12.6809V26.429H49.9872V25.8373Z" fill="#005FB1"/>
<path d="M49.9872 26.429H12.6809V27.0207H49.9872V26.429Z" fill="#005FB1"/>
<path d="M49.9872 27.0208H12.6809V27.6125H49.9872V27.0208Z" fill="#005FB1"/>
<path d="M49.9872 27.6124H12.6809V28.2041H49.9872V27.6124Z" fill="#005FB1"/>
<path d="M49.9872 28.2042H12.6809V28.7959H49.9872V28.2042Z" fill="#005FB1"/>
<path d="M49.9872 28.7958H12.6809V29.3875H49.9872V28.7958Z" fill="#005FB1"/>
<path d="M49.9872 29.3875H12.6809V29.9792H49.9872V29.3875Z" fill="#005FB1"/>
<path d="M49.9872 29.9792H12.6809V30.5709H49.9872V29.9792Z" fill="#005FB1"/>
<path d="M49.9872 30.5709H12.6809V31.1626H49.9872V30.5709Z" fill="#005FB1"/>
<path d="M49.9872 31.1627H12.6809V31.7544H49.9872V31.1627Z" fill="#005FB1"/>
<path d="M49.9872 31.7543H12.6809V32.346H49.9872V31.7543Z" fill="#005FB1"/>
<path d="M49.9872 32.3461H12.6809V32.9378H49.9872V32.3461Z" fill="#005FB1"/>
<path d="M49.9872 32.9377H12.6809V33.5294H49.9872V32.9377Z" fill="#005FB1"/>
<path d="M49.9872 33.5295H12.6809V34.1212H49.9872V33.5295Z" fill="#005FB1"/>
<path d="M49.9872 34.1212H12.6809V34.7129H49.9872V34.1212Z" fill="#005FB1"/>
<path d="M49.9872 34.7128H12.6809V35.3045H49.9872V34.7128Z" fill="#005FB1"/>
<path d="M49.9872 35.3046H12.6809V35.8963H49.9872V35.3046Z" fill="#005FB1"/>
<path d="M49.9872 35.8962H12.6809V36.4879H49.9872V35.8962Z" fill="#005FB1"/>
<path d="M49.9872 36.488H12.6809V37.0797H49.9872V36.488Z" fill="#005FB1"/>
<path d="M49.9872 37.0797H12.6809V37.6714H49.9872V37.0797Z" fill="#005FB1"/>
<path d="M49.9872 37.6714H12.6809V38.2631H49.9872V37.6714Z" fill="#005FB1"/>
<path d="M49.9872 38.2631H12.6809V38.8548H49.9872V38.2631Z" fill="#005FB1"/>
<path d="M49.9872 38.8547H12.6809V39.4464H49.9872V38.8547Z" fill="#005FB1"/>
<path d="M49.9872 39.4465H12.6809V40.0382H49.9872V39.4465Z" fill="#005FB1"/>
<path d="M49.9872 40.0381H12.6809V40.6298H49.9872V40.0381Z" fill="#005FB1"/>
<path d="M49.9872 40.6299H12.6809V41.2216H49.9872V40.6299Z" fill="#005FB1"/>
<path d="M49.9872 41.2216H12.6809V41.8133H49.9872V41.2216Z" fill="#005FB1"/>
<path d="M49.9872 41.8133H12.6809V42.405H49.9872V41.8133Z" fill="#005FB1"/>
<path d="M49.9872 42.405H12.6809V42.9967H49.9872V42.405Z" fill="#005FB1"/>
<path d="M49.9872 42.9967H12.6809V43.5884H49.9872V42.9967Z" fill="#005FB1"/>
<path d="M49.9872 43.5884H12.6809V44.1801H49.9872V43.5884Z" fill="#005FB1"/>
<path d="M49.9872 44.1801H12.6809V44.7718H49.9872V44.1801Z" fill="#005FB1"/>
<path d="M49.9872 44.7718H12.6809V45.3635H49.9872V44.7718Z" fill="#005FB1"/>
<path d="M49.9872 45.3635H12.6809V45.9552H49.9872V45.3635Z" fill="#005FB1"/>
<path d="M49.9872 45.9616H12.6809V46.5533H49.9872V45.9616Z" fill="#005FB1"/>
<path d="M49.9872 46.5533H12.6809V47.145H49.9872V46.5533Z" fill="#005FB1"/>
<path d="M49.9872 47.145H12.6809V47.7367H49.9872V47.145Z" fill="#005FB1"/>
<path d="M49.9872 47.7368H12.6809V48.3285H49.9872V47.7368Z" fill="#005FB1"/>
<path d="M49.9872 48.3284H12.6809V48.9201H49.9872V48.3284Z" fill="#005FB1"/>
<path d="M49.9872 48.9202H12.6809V49.5119H49.9872V48.9202Z" fill="#005FB1"/>
<path d="M49.9872 49.5118H12.6809V50.1035H49.9872V49.5118Z" fill="#005FB1"/>
<path d="M49.9872 50.1035H12.6809V50.6952H49.9872V50.1035Z" fill="#005FB1"/>
<path d="M49.9872 50.6953H12.6809V51.287H49.9872V50.6953Z" fill="#005FB1"/>
<path d="M49.9872 51.2869H12.6809V51.8786H49.9872V51.2869Z" fill="#005FB1"/>
<path d="M49.9872 51.8787H12.6809V52.4704H49.9872V51.8787Z" fill="#005FB1"/>
<path d="M49.9872 52.4703H12.6809V53.062H49.9872V52.4703Z" fill="#005FB1"/>
<path d="M49.9872 53.0621H12.6809V53.6538H49.9872V53.0621Z" fill="#005FB1"/>
<path d="M49.9872 53.6537H12.6809V54.2454H49.9872V53.6537Z" fill="#005FB1"/>
<path d="M49.9872 54.2455H12.6809V54.8372H49.9872V54.2455Z" fill="#005FB1"/>
<path d="M49.9872 54.8372H12.6809V55.4289H49.9872V54.8372Z" fill="#005FB1"/>
<path d="M49.9872 55.4288H12.6809V56.0205H49.9872V55.4288Z" fill="#005FB1"/>
<path d="M49.9872 56.0206H12.6809V56.6123H49.9872V56.0206Z" fill="#005FB1"/>
<path d="M49.9872 56.6122H12.6809V57.2039H49.9872V56.6122Z" fill="#005FB1"/>
<path d="M49.9872 57.204H12.6809V57.7957H49.9872V57.204Z" fill="#005FB1"/>
<path d="M49.9872 57.7957H12.6809V58.3874H49.9872V57.7957Z" fill="#005FB1"/>
<path d="M49.9872 58.3874H12.6809V58.9791H49.9872V58.3874Z" fill="#005FB1"/>
<path d="M49.9872 58.9791H12.6809V59.5708H49.9872V58.9791Z" fill="#005FB1"/>
<path d="M49.9872 59.5708H12.6809V60.1625H49.9872V59.5708Z" fill="#005FB1"/>
<path d="M49.9872 60.1625H12.6809V60.7542H49.9872V60.1625Z" fill="#005FB1"/>
<path d="M49.9872 60.7542H12.6809V61.3459H49.9872V60.7542Z" fill="#005FB1"/>
<path d="M49.9872 61.3459H12.6809V61.9376H49.9872V61.3459Z" fill="#005FB1"/>
<path d="M49.9872 61.9376H12.6809V62.5293H49.9872V61.9376Z" fill="#005FB1"/>
<path d="M49.9872 62.5293H12.6809V63.121H49.9872V62.5293Z" fill="#005FB1"/>
<path d="M49.9872 63.121H12.6809V63.7127H49.9872V63.121Z" fill="#005FB1"/>
<path d="M49.9872 63.7127H12.6809V66.6969H49.9872V63.7127Z" fill="#005FB1"/>
</g>
<path d="M51.3992 43.5794C51.3118 42.4925 51.1431 41.3927 50.8931 40.2865C50.1309 36.9292 48.6189 33.9707 46.9132 31.1151C46.8757 31.0508 46.8382 30.9929 46.807 30.935C46.6133 30.6199 46.4196 30.2983 46.2259 29.9831C45.4012 28.7225 44.4453 27.5584 43.3769 26.523C43.5706 27.1404 43.8205 28.2981 43.6893 29.9703C43.4894 32.5879 42.371 36.4597 38.691 41.502C37.8662 42.634 37.1477 43.6759 36.5104 44.6342C36.1106 45.2388 35.7419 45.8176 35.4046 46.3578C35.3608 46.4286 35.3171 46.4929 35.2733 46.5636C34.2549 48.1265 33.3552 49.7537 32.693 51.4902C32.693 51.4966 32.6867 51.5031 32.6867 51.5095C31.962 53.2524 31.9182 54.0178 31.9182 54.0178C31.8557 53.9342 31.7995 53.8442 31.7433 53.7605C30.8623 52.3713 30.5374 50.5962 30.8623 48.9626V48.9369C30.9123 48.7246 30.9623 48.5188 31.0185 48.3066C31.0685 48.0815 31.1497 47.8564 31.2185 47.6313L31.3184 47.2904L31.4434 46.9495L31.5683 46.6087L31.6308 46.4414C31.6558 46.3836 31.6808 46.3257 31.7058 46.2742L31.9994 45.5989C32.1057 45.3738 32.2244 45.1487 32.3306 44.9236L32.493 44.5827L32.6805 44.2483L33.0553 43.5794C33.1928 43.3607 33.3302 43.1421 33.4677 42.9234L33.6739 42.589C33.7426 42.4796 33.8238 42.3703 33.8988 42.2609L34.3487 41.6114L35.4295 40.0485C36.1481 38.9744 36.8291 37.8682 37.4414 36.7041C37.76 36.1381 38.0287 35.5336 38.3098 34.9419C38.4473 34.646 38.591 34.3501 38.7097 34.0414C38.7409 33.9707 38.7659 33.8999 38.7972 33.8292C38.8909 33.5912 38.9846 33.3597 39.0783 33.1217L39.2595 32.6651L39.422 32.1956L39.7406 31.2566C39.8468 30.9479 39.928 30.6199 40.0218 30.3047L40.2842 29.3464C40.6216 27.9379 40.8715 26.5101 41.0152 25.0759C41.0339 24.9151 41.0464 24.7607 41.0589 24.5999C41.1464 23.5645 41.1839 22.5354 41.1651 21.5064L41.1339 20.5288C41.1214 20.2008 41.0839 19.8792 41.0589 19.5576C41.0464 19.3968 41.0339 19.236 41.0152 19.0752L40.9527 18.5929L40.8902 18.1105L40.859 17.8725L40.8153 17.6346C40.759 17.3194 40.709 16.9978 40.6466 16.6827L40.4341 15.7437C40.2779 15.1263 40.1155 14.5088 39.9156 13.9043C39.8218 13.602 39.7094 13.3061 39.6032 13.0103C39.5032 12.7144 39.3782 12.4186 39.2658 12.1292C39.0283 11.5439 38.7597 10.9844 38.4848 10.4248C37.91 9.32502 37.2727 8.25738 36.4917 7.33124L36.473 7.3441C37.2539 9.65302 37.6538 12.0198 37.81 14.3545C37.885 15.5186 37.8975 16.6763 37.8225 17.8211C37.7475 18.9659 37.6288 20.0979 37.4226 21.2041C37.3414 21.6286 37.2539 22.0466 37.154 22.4647C36.9978 23.14 36.8166 23.8024 36.5917 24.452C36.4917 24.7864 36.3667 25.1209 36.2418 25.4553C36.173 25.6418 36.0981 25.8284 36.0293 26.0149C35.9419 26.2721 35.8169 26.523 35.7107 26.7738L35.3858 27.5327L35.0234 28.2723C34.8985 28.5167 34.7923 28.7676 34.6548 29.0055L34.2674 29.7259L34.0738 30.086L33.8613 30.4333C33.5677 30.8964 33.3177 31.3723 33.0054 31.8226C32.7055 32.2728 32.4243 32.7358 32.0932 33.1732L31.6183 33.8356C31.5371 33.945 31.4684 34.0607 31.3809 34.1636L31.131 34.4852L30.6311 35.1284L30.3812 35.4499C30.2938 35.5593 30.2063 35.6558 30.1188 35.7651L29.5877 36.3889L29.3253 36.7041L29.0442 37.0514L28.4131 37.8232C28.3069 37.9518 28.2007 38.0804 28.1007 38.2091L27.8008 38.6143L27.201 39.4311L26.6387 40.2929C26.6387 40.2929 26.6325 40.2993 26.62 40.3186C26.62 40.3186 26.6137 40.3251 26.6137 40.3315L26.3576 40.7238L26.0952 41.174C25.9452 41.4313 25.7953 41.6885 25.6516 41.9522C24.2645 44.6728 22.3277 50.3261 26.4638 55.6193C27.6821 57.1114 29.1254 58.3977 30.7374 59.4267C30.7436 59.4267 30.7561 59.4396 30.7624 59.4396C31.5059 59.9348 32.2931 60.3593 33.1241 60.6937C33.2178 60.7323 33.3115 60.7709 33.4052 60.8031C33.4927 60.8352 33.5739 60.8674 33.6551 60.8931C33.6739 60.8996 33.6864 60.906 33.7051 60.9124C33.7801 60.9381 33.8551 60.9639 33.9363 60.9896C33.9738 61.0025 34.005 61.0153 34.0425 61.0218C34.105 61.041 34.1737 61.0668 34.2362 61.0861C34.2924 61.1054 34.3549 61.1247 34.4111 61.1375C34.4611 61.1504 34.5111 61.1632 34.5611 61.1761C34.5673 61.1761 34.5736 61.1761 34.5861 61.1825C34.6361 61.1954 34.6798 61.2083 34.7298 61.2211C34.811 61.2404 34.886 61.2597 34.9672 61.279C35.0922 61.3112 35.2171 61.3369 35.3483 61.3626C35.3983 61.3755 35.4545 61.3884 35.5045 61.3948C35.692 61.4334 35.8856 61.4655 36.0793 61.4913C36.1855 61.5041 36.2918 61.5234 36.4042 61.5363C36.5979 61.562 36.7916 61.5813 36.9915 61.5942C37.0852 61.6006 37.1727 61.607 37.2664 61.607C37.2977 61.607 37.3289 61.607 37.3664 61.607C37.4539 61.607 37.5351 61.6135 37.6226 61.6135C37.7288 61.6135 37.835 61.6135 37.9412 61.6135C43.2832 61.6135 47.8879 58.3205 50.0059 53.5676C50.0122 53.5419 50.0247 53.5226 50.0309 53.4968C50.2121 53.0273 50.3746 52.545 50.5183 52.0626C50.6307 51.696 50.7307 51.3294 50.8244 50.9564C50.9431 50.4869 51.0431 50.011 51.1306 49.5286C51.2118 49.0848 51.2805 48.641 51.3305 48.1908C51.5117 46.6858 51.5429 45.1358 51.4117 43.5665L51.3992 43.5794ZM49.4249 46.435C49.2 48.5896 48.5314 50.6991 47.463 52.5386C46.3946 54.3715 44.9514 55.9537 43.2207 57.0085C43.8143 56.1659 44.3703 55.3298 44.8577 54.468C45.345 53.6062 45.7761 52.7251 46.1385 51.8246C46.8695 50.0238 47.3318 48.1394 47.5318 46.2228C47.7254 44.3062 47.6567 42.3639 47.3131 40.4408C47.1444 39.4761 46.9007 38.5242 46.6008 37.5723C46.3009 36.6205 45.9323 35.6815 45.5262 34.7232C47.0007 36.1381 48.0941 38.0097 48.7626 40.0356C49.4311 42.068 49.6561 44.2804 49.4311 46.435H49.4249Z" fill="url(#paint0_linear_42_29720)"/>
<mask id="mask1_42_29720" style="mask-type:luminance" maskUnits="userSpaceOnUse" x="23" y="7" width="29" height="55">
<path d="M51.3992 43.5794C51.3118 42.4925 51.1431 41.3927 50.8931 40.2865C50.1309 36.9292 48.6189 33.9707 46.9132 31.1151C46.8757 31.0508 46.8382 30.9929 46.807 30.935C46.6133 30.6199 46.4196 30.2983 46.2259 29.9831C45.4012 28.7225 44.4453 27.5584 43.3769 26.523C43.5706 27.1404 43.8205 28.2981 43.6893 29.9703C43.4894 32.5879 42.371 36.4597 38.691 41.502C37.8662 42.634 37.1477 43.6759 36.5104 44.6342C36.1106 45.2388 35.7419 45.8176 35.4046 46.3578C35.3608 46.4286 35.3171 46.4929 35.2733 46.5636C34.2549 48.1265 33.3552 49.7537 32.693 51.4902C32.693 51.4966 32.6867 51.5031 32.6867 51.5095C31.962 53.2524 31.9182 54.0178 31.9182 54.0178C31.8557 53.9342 31.7995 53.8442 31.7433 53.7605C30.8623 52.3713 30.5374 50.5962 30.8623 48.9626V48.9369C30.9123 48.7246 30.9623 48.5188 31.0185 48.3066C31.0685 48.0815 31.1497 47.8564 31.2185 47.6313L31.3184 47.2904L31.4434 46.9495L31.5683 46.6087L31.6308 46.4414C31.6558 46.3836 31.6808 46.3257 31.7058 46.2742L31.9994 45.5989C32.1057 45.3738 32.2244 45.1487 32.3306 44.9236L32.493 44.5827L32.6805 44.2483L33.0553 43.5794C33.1928 43.3607 33.3302 43.1421 33.4677 42.9234L33.6739 42.589C33.7426 42.4796 33.8238 42.3703 33.8988 42.2609L34.3487 41.6114L35.4295 40.0485C36.1481 38.9744 36.8291 37.8682 37.4414 36.7041C37.76 36.1381 38.0287 35.5336 38.3098 34.9419C38.4473 34.646 38.591 34.3501 38.7097 34.0414C38.7409 33.9707 38.7659 33.8999 38.7972 33.8292C38.8909 33.5912 38.9846 33.3597 39.0783 33.1217L39.2595 32.6651L39.422 32.1956L39.7406 31.2566C39.8468 30.9479 39.928 30.6199 40.0218 30.3047L40.2842 29.3464C40.6216 27.9379 40.8715 26.5101 41.0152 25.0759C41.0339 24.9151 41.0464 24.7607 41.0589 24.5999C41.1464 23.5645 41.1839 22.5354 41.1651 21.5064L41.1339 20.5288C41.1214 20.2008 41.0839 19.8792 41.0589 19.5576C41.0464 19.3968 41.0339 19.236 41.0152 19.0752L40.9527 18.5929L40.8902 18.1105L40.859 17.8725L40.8153 17.6346C40.759 17.3194 40.709 16.9978 40.6466 16.6827L40.4341 15.7437C40.2779 15.1263 40.1155 14.5088 39.9156 13.9043C39.8218 13.602 39.7094 13.3061 39.6032 13.0103C39.5032 12.7144 39.3782 12.4186 39.2658 12.1292C39.0283 11.5439 38.7597 10.9844 38.4848 10.4248C37.91 9.32502 37.2727 8.25738 36.4917 7.33124L36.473 7.3441C37.2539 9.65302 37.6538 12.0198 37.81 14.3545C37.885 15.5186 37.8975 16.6763 37.8225 17.8211C37.7475 18.9659 37.6288 20.0979 37.4226 21.2041C37.3414 21.6286 37.2539 22.0466 37.154 22.4647C36.9978 23.14 36.8166 23.8024 36.5917 24.452C36.4917 24.7864 36.3667 25.1209 36.2418 25.4553C36.173 25.6418 36.0981 25.8284 36.0293 26.0149C35.9419 26.2721 35.8169 26.523 35.7107 26.7738L35.3858 27.5327L35.0234 28.2723C34.8985 28.5167 34.7923 28.7676 34.6548 29.0055L34.2674 29.7259L34.0738 30.086L33.8613 30.4333C33.5677 30.8964 33.3177 31.3723 33.0054 31.8226C32.7055 32.2728 32.4243 32.7358 32.0932 33.1732L31.6183 33.8356C31.5371 33.945 31.4684 34.0607 31.3809 34.1636L31.131 34.4852L30.6311 35.1284L30.3812 35.4499C30.2938 35.5593 30.2063 35.6558 30.1188 35.7651L29.5877 36.3889L29.3253 36.7041L29.0442 37.0514L28.4131 37.8232C28.3069 37.9518 28.2007 38.0804 28.1007 38.2091L27.8008 38.6143L27.201 39.4311L26.6387 40.2929C26.6387 40.2929 26.6325 40.2993 26.62 40.3186C26.62 40.3186 26.6137 40.3251 26.6137 40.3315L26.3576 40.7238L26.0952 41.174C25.9452 41.4313 25.7953 41.6885 25.6516 41.9522C24.2645 44.6728 22.3277 50.3261 26.4638 55.6193C27.6821 57.1114 29.1254 58.3977 30.7374 59.4267C30.7436 59.4267 30.7561 59.4396 30.7624 59.4396C31.5059 59.9348 32.2931 60.3593 33.1241 60.6937C33.2178 60.7323 33.3115 60.7709 33.4052 60.8031C33.4927 60.8352 33.5739 60.8674 33.6551 60.8931C33.6739 60.8996 33.6864 60.906 33.7051 60.9124C33.7801 60.9381 33.8551 60.9639 33.9363 60.9896C33.9738 61.0025 34.005 61.0153 34.0425 61.0218C34.105 61.041 34.1737 61.0668 34.2362 61.0861C34.2924 61.1054 34.3549 61.1247 34.4111 61.1375C34.4611 61.1504 34.5111 61.1632 34.5611 61.1761C34.5673 61.1761 34.5736 61.1761 34.5861 61.1825C34.6361 61.1954 34.6798 61.2083 34.7298 61.2211C34.811 61.2404 34.886 61.2597 34.9672 61.279C35.0922 61.3112 35.2171 61.3369 35.3483 61.3626C35.3983 61.3755 35.4545 61.3884 35.5045 61.3948C35.692 61.4334 35.8856 61.4655 36.0793 61.4913C36.1855 61.5041 36.2918 61.5234 36.4042 61.5363C36.5979 61.562 36.7916 61.5813 36.9915 61.5942C37.0852 61.6006 37.1727 61.607 37.2664 61.607C37.2977 61.607 37.3289 61.607 37.3664 61.607C37.4539 61.607 37.5351 61.6135 37.6226 61.6135C37.7288 61.6135 37.835 61.6135 37.9412 61.6135C43.2832 61.6135 47.8879 58.3205 50.0059 53.5676C50.0122 53.5419 50.0247 53.5226 50.0309 53.4968C50.2121 53.0273 50.3746 52.545 50.5183 52.0626C50.6307 51.696 50.7307 51.3294 50.8244 50.9564C50.9431 50.4869 51.0431 50.011 51.1306 49.5286C51.2118 49.0848 51.2805 48.641 51.3305 48.1908C51.5117 46.6858 51.5429 45.1358 51.4117 43.5665L51.3992 43.5794ZM49.4249 46.435C49.2 48.5896 48.5314 50.6991 47.463 52.5386C46.3946 54.3715 44.9514 55.9537 43.2207 57.0085C43.8143 56.1659 44.3703 55.3298 44.8577 54.468C45.345 53.6062 45.7761 52.7251 46.1385 51.8246C46.8695 50.0238 47.3318 48.1394 47.5318 46.2228C47.7254 44.3062 47.6567 42.3639 47.3131 40.4408C47.1444 39.4761 46.9007 38.5242 46.6008 37.5723C46.3009 36.6205 45.9323 35.6815 45.5262 34.7232C47.0007 36.1381 48.0941 38.0097 48.7626 40.0356C49.4311 42.068 49.6561 44.2804 49.4311 46.435H49.4249Z" fill="white"/>
</mask>
<g mask="url(#mask1_42_29720)">
<path d="M43.2207 56.9827L43.6893 57.0085H43.2207V56.9827Z" fill="url(#paint1_linear_42_29720)"/>
<path d="M43.2207 56.3718L49.1812 56.7448L49.1687 57.0085H43.6893L43.2207 56.9828V56.3718Z" fill="url(#paint2_linear_42_29720)"/>
<path d="M43.2207 55.7607L49.2187 56.1402L49.1812 56.7448L43.2207 56.3717V55.7607Z" fill="url(#paint3_linear_42_29720)"/>
<path d="M43.2207 55.1497L49.2562 55.5292L49.2187 56.1402L43.2207 55.7607V55.1497Z" fill="url(#paint4_linear_42_29720)"/>
<path d="M43.2207 54.5388L49.2874 54.9246L49.2562 55.5292L43.2207 55.1498V54.5388Z" fill="url(#paint5_linear_42_29720)"/>
<path d="M43.2207 53.9277L49.3249 54.3136L49.2874 54.9246L43.2207 54.5387V53.9277Z" fill="url(#paint6_linear_42_29720)"/>
<path d="M43.2207 53.3168L49.3562 53.7091L49.3249 54.3137L43.2207 53.9278V53.3168Z" fill="url(#paint7_linear_42_29720)"/>
<path d="M43.2207 52.7057L49.3936 53.0981L49.3562 53.7091L43.2207 53.3167V52.7057Z" fill="url(#paint8_linear_42_29720)"/>
<path d="M43.2207 52.5964L43.2519 52.1012L49.4311 52.4935L49.3936 53.0981L43.2207 52.7058V52.5964Z" fill="url(#paint9_linear_42_29720)"/>
<path d="M43.252 52.1012L43.2832 51.4902L49.4624 51.8825L49.4311 52.4935L43.252 52.1012Z" fill="url(#paint10_linear_42_29720)"/>
<path d="M43.2832 51.4902L43.3207 50.8856L49.4999 51.2779L49.4624 51.8825L43.2832 51.4902Z" fill="url(#paint11_linear_42_29720)"/>
<path d="M43.3207 50.8857L43.3519 50.2747L49.5311 50.667L49.4999 51.278L43.3207 50.8857Z" fill="url(#paint12_linear_42_29720)"/>
<path d="M43.3519 50.2746L43.3894 49.67L49.5686 50.0559L49.5311 50.6669L43.3519 50.2746Z" fill="url(#paint13_linear_42_29720)"/>
<path d="M43.3894 49.6701L43.4269 49.0591L49.6061 49.4514L49.5686 50.056L43.3894 49.6701Z" fill="url(#paint14_linear_42_29720)"/>
<path d="M43.4269 49.0591L43.4581 48.4545L49.6373 48.8404L49.6061 49.4514L43.4269 49.0591Z" fill="url(#paint15_linear_42_29720)"/>
<path d="M43.4581 48.4545L43.4956 47.8435L49.6498 48.2358V48.6925L49.6373 48.8404L43.4581 48.4545Z" fill="url(#paint16_linear_42_29720)"/>
<path d="M43.4956 47.8435L43.5268 47.239L49.6498 47.6248V48.2358L43.4956 47.8435Z" fill="url(#paint17_linear_42_29720)"/>
<path d="M43.5269 47.2389L43.5643 46.6279L49.6498 47.0138V47.6248L43.5269 47.2389Z" fill="url(#paint18_linear_42_29720)"/>
<path d="M43.5643 46.6279L43.6018 46.0234L49.6498 46.4028V47.0138L43.5643 46.6279Z" fill="url(#paint19_linear_42_29720)"/>
<path d="M43.6018 46.0234L43.633 45.4124L49.6498 45.7919V46.4029L43.6018 46.0234Z" fill="url(#paint20_linear_42_29720)"/>
<path d="M43.6331 45.4124L43.6705 44.8078L49.6498 45.1808V45.7918L43.6331 45.4124Z" fill="url(#paint21_linear_42_29720)"/>
<path d="M43.6705 44.8078L43.708 44.1968L49.6498 44.5699V45.1809L43.6705 44.8078Z" fill="url(#paint22_linear_42_29720)"/>
<path d="M43.708 44.1969L43.7392 43.5923L49.6498 43.9653V44.5699L43.708 44.1969Z" fill="url(#paint23_linear_42_29720)"/>
<path d="M43.7393 43.5923L43.7767 42.9813L49.6498 43.3543V43.9653L43.7393 43.5923Z" fill="url(#paint24_linear_42_29720)"/>
<path d="M43.7767 42.9813L43.808 42.3767L49.6498 42.7433V43.3543L43.7767 42.9813Z" fill="url(#paint25_linear_42_29720)"/>
<path d="M43.808 42.3767L43.8455 41.7657L49.6498 42.1323V42.7433L43.808 42.3767Z" fill="url(#paint26_linear_42_29720)"/>
<path d="M43.8455 41.7657L43.8829 41.1611L49.6498 41.5213V42.1323L43.8455 41.7657Z" fill="url(#paint27_linear_42_29720)"/>
<path d="M43.8829 41.1612L43.9142 40.5502L49.6498 40.9103V41.5213L43.8829 41.1612Z" fill="url(#paint28_linear_42_29720)"/>
<path d="M43.9142 40.5501L43.9517 39.9391L49.6498 40.2993V40.9103L43.9142 40.5501Z" fill="url(#paint29_linear_42_29720)"/>
<path d="M43.9517 39.9392L43.9829 39.3346L49.6498 39.6948V40.2993L43.9517 39.9392Z" fill="url(#paint30_linear_42_29720)"/>
<path d="M43.9829 39.3346L44.0204 38.7236L49.6498 39.0837V39.6947L43.9829 39.3346Z" fill="url(#paint31_linear_42_29720)"/>
<path d="M44.0204 38.7236L44.0579 38.119L49.6498 38.4728V39.0838L44.0204 38.7236Z" fill="url(#paint32_linear_42_29720)"/>
<path d="M44.0579 38.119L44.0891 37.508L49.6497 37.8617V38.4727L44.0579 38.119Z" fill="url(#paint33_linear_42_29720)"/>
<path d="M44.0891 37.508L44.1266 36.9034L49.6498 37.2507V37.8617L44.0891 37.508Z" fill="url(#paint34_linear_42_29720)"/>
<path d="M44.1266 36.9035L44.1641 36.2925L49.6497 36.6398V37.2508L44.1266 36.9035Z" fill="url(#paint35_linear_42_29720)"/>
<path d="M44.1642 36.2924L44.1954 35.6879L49.6499 36.0287V36.6397L44.1642 36.2924Z" fill="url(#paint36_linear_42_29720)"/>
<path d="M44.1953 35.6879L44.2328 35.0769L49.6497 35.4178V36.0288L44.1953 35.6879Z" fill="url(#paint37_linear_42_29720)"/>
<path d="M44.2329 35.0769L44.2517 34.7231H48.2441L49.6499 34.8132V35.4178L44.2329 35.0769Z" fill="url(#paint38_linear_42_29720)"/>
<path d="M49.6498 34.8132L48.244 34.7231H49.6498V34.8132Z" fill="url(#paint39_linear_42_29720)"/>
<path d="M22.3214 61.1504L29.7939 61.6263H22.3214V61.1504Z" fill="url(#paint40_linear_42_29720)"/>
<path d="M22.3214 60.5394L39.4594 61.6263H29.7939L22.3214 61.1504V60.5394Z" fill="url(#paint41_linear_42_29720)"/>
<path d="M22.3214 59.9284L49.125 61.6263H39.4594L22.3214 60.5394V59.9284Z" fill="url(#paint42_linear_42_29720)"/>
<path d="M22.3214 59.3238L50.9181 61.1246L50.8869 61.6263H49.125L22.3214 59.9284V59.3238Z" fill="url(#paint43_linear_42_29720)"/>
<path d="M22.3214 58.7128L50.9556 60.5201L50.9181 61.1247L22.3214 59.3238V58.7128Z" fill="url(#paint44_linear_42_29720)"/>
<path d="M22.3214 58.1018L50.9869 59.9091L50.9556 60.5201L22.3214 58.7128V58.1018Z" fill="url(#paint45_linear_42_29720)"/>
<path d="M22.3214 57.4908L51.0243 59.3045L50.9869 59.9091L22.3214 58.1018V57.4908Z" fill="url(#paint46_linear_42_29720)"/>
<path d="M22.3214 56.8798L51.0556 58.6935L51.0243 59.3045L22.3214 57.4908V56.8798Z" fill="url(#paint47_linear_42_29720)"/>
<path d="M22.3214 56.2689L51.0931 58.089L51.0556 58.6936L22.3214 56.8799V56.2689Z" fill="url(#paint48_linear_42_29720)"/>
<path d="M22.3214 55.6578L51.1306 57.478L51.0931 58.089L22.3214 56.2688V55.6578Z" fill="url(#paint49_linear_42_29720)"/>
<path d="M22.3214 55.0533L51.1618 56.8734L51.1306 57.478L22.3214 55.6579V55.0533Z" fill="url(#paint50_linear_42_29720)"/>
<path d="M22.3214 54.4423L51.1993 56.2624L51.1618 56.8734L22.3214 55.0533V54.4423Z" fill="url(#paint51_linear_42_29720)"/>
<path d="M22.3214 53.8313L51.2305 55.6579L51.1993 56.2624L22.3214 54.4423V53.8313Z" fill="url(#paint52_linear_42_29720)"/>
<path d="M22.3214 53.2203L51.268 55.0468L51.2305 55.6578L22.3214 53.8313V53.2203Z" fill="url(#paint53_linear_42_29720)"/>
<path d="M22.3214 52.6093L51.3055 54.4423L51.268 55.0469L22.3214 53.2203V52.6093Z" fill="url(#paint54_linear_42_29720)"/>
<path d="M22.3214 51.9983L51.3367 53.8313L51.3055 54.4423L22.3214 52.6093V51.9983Z" fill="url(#paint55_linear_42_29720)"/>
<path d="M22.3214 51.3873L51.3742 53.2203L51.3367 53.8313L22.3214 51.9983V51.3873Z" fill="url(#paint56_linear_42_29720)"/>
<path d="M22.3214 50.7827L51.4117 52.6157L51.3742 53.2203L22.3214 51.3873V50.7827Z" fill="url(#paint57_linear_42_29720)"/>
<path d="M22.3214 50.1718L51.443 52.0047L51.4117 52.6157L22.3214 50.7827V50.1718Z" fill="url(#paint58_linear_42_29720)"/>
<path d="M22.3214 49.5607L51.4804 51.4002L51.443 52.0047L22.3214 50.1717V49.5607Z" fill="url(#paint59_linear_42_29720)"/>
<path d="M22.3214 48.9498L51.5117 50.7892L51.4804 51.4002L22.3214 49.5608V48.9498Z" fill="url(#paint60_linear_42_29720)"/>
<path d="M22.3214 48.3387L51.5304 50.1846V50.5448L51.5117 50.7892L22.3214 48.9497V48.3387Z" fill="url(#paint61_linear_42_29720)"/>
<path d="M22.3214 47.7277L51.5304 49.5736V50.1846L22.3214 48.3387V47.7277Z" fill="url(#paint62_linear_42_29720)"/>
<path d="M22.3214 47.1168L51.5304 48.9626V49.5736L22.3214 47.7278V47.1168Z" fill="url(#paint63_linear_42_29720)"/>
<path d="M22.3214 46.5057L51.5304 48.3516V48.9626L22.3214 47.1167V46.5057Z" fill="url(#paint64_linear_42_29720)"/>
<path d="M22.3214 45.9012L51.5304 47.7406V48.3516L22.3214 46.5057V45.9012Z" fill="url(#paint65_linear_42_29720)"/>
<path d="M22.3214 45.9012L22.3589 45.2902L51.5304 47.1296V47.7406L22.3214 45.9012Z" fill="url(#paint66_linear_42_29720)"/>
<path d="M22.3589 45.2902L22.3901 44.6856L51.5304 46.525V47.1296L22.3589 45.2902Z" fill="url(#paint67_linear_42_29720)"/>
<path d="M22.3901 44.6856L22.4276 44.0746L51.5304 45.9141V46.5251L22.3901 44.6856Z" fill="url(#paint68_linear_42_29720)"/>
<path d="M22.4276 44.0746L22.4651 43.47L51.5304 45.303V45.914L22.4276 44.0746Z" fill="url(#paint69_linear_42_29720)"/>
<path d="M22.4651 43.4701L22.4963 42.8591L51.5304 44.6921V45.3031L22.4651 43.4701Z" fill="url(#paint70_linear_42_29720)"/>
<path d="M22.4963 42.859L22.5338 42.248L51.5304 44.081V44.692L22.4963 42.859Z" fill="url(#paint71_linear_42_29720)"/>
<path d="M22.5338 42.2481L22.5651 41.6435L51.5304 43.47V44.081L22.5338 42.2481Z" fill="url(#paint72_linear_42_29720)"/>
<path d="M22.5651 41.6435L22.6026 41.0325L51.5304 42.8591V43.4701L22.5651 41.6435Z" fill="url(#paint73_linear_42_29720)"/>
<path d="M22.6025 41.0325L22.64 40.4279L51.5304 42.248V42.859L22.6025 41.0325Z" fill="url(#paint74_linear_42_29720)"/>
<path d="M22.64 40.428L22.6713 39.817L51.5304 41.6435V42.2481L22.64 40.428Z" fill="url(#paint75_linear_42_29720)"/>
<path d="M22.6713 39.817L22.7088 39.2124L51.5304 41.0325V41.6435L22.6713 39.817Z" fill="url(#paint76_linear_42_29720)"/>
<path d="M22.7087 39.2124L22.7462 38.6014L51.5304 40.4215V41.0325L22.7087 39.2124Z" fill="url(#paint77_linear_42_29720)"/>
<path d="M22.7462 38.6014L22.7775 37.9968L51.5304 39.8105V40.4215L22.7462 38.6014Z" fill="url(#paint78_linear_42_29720)"/>
<path d="M22.7775 37.9968L22.815 37.3858L51.5304 39.1995V39.8105L22.7775 37.9968Z" fill="url(#paint79_linear_42_29720)"/>
<path d="M22.8149 37.3858L22.8462 36.7812L51.5304 38.5885V39.1995L22.8149 37.3858Z" fill="url(#paint80_linear_42_29720)"/>
<path d="M22.8462 36.7813L22.8837 36.1703L51.5304 37.9776V38.5885L22.8462 36.7813Z" fill="url(#paint81_linear_42_29720)"/>
<path d="M22.8837 36.1702L22.9212 35.5657L51.5304 37.3729V37.9775L22.8837 36.1702Z" fill="url(#paint82_linear_42_29720)"/>
<path d="M22.9213 35.5657L22.9525 34.9547L51.5305 36.762V37.373L22.9213 35.5657Z" fill="url(#paint83_linear_42_29720)"/>
<path d="M22.9524 34.9547L22.9899 34.3502L51.5304 36.151V36.762L22.9524 34.9547Z" fill="url(#paint84_linear_42_29720)"/>
<path d="M22.99 34.3501L23.0212 33.7391L51.5305 35.54V36.151L22.99 34.3501Z" fill="url(#paint85_linear_42_29720)"/>
<path d="M23.0211 33.7391L23.0586 33.1346L51.5304 34.929V35.54L23.0211 33.7391Z" fill="url(#paint86_linear_42_29720)"/>
<path d="M23.0587 33.1346L23.0962 32.5236L51.5305 34.318V34.929L23.0587 33.1346Z" fill="url(#paint87_linear_42_29720)"/>
<path d="M23.0962 32.5236L23.1274 31.919L51.5305 33.707V34.318L23.0962 32.5236Z" fill="url(#paint88_linear_42_29720)"/>
<path d="M23.1274 31.919L23.1649 31.308L51.5305 33.096V33.707L23.1274 31.919Z" fill="url(#paint89_linear_42_29720)"/>
<path d="M23.1649 31.308L23.2024 30.7034L51.5305 32.4914V33.096L23.1649 31.308Z" fill="url(#paint90_linear_42_29720)"/>
<path d="M23.2024 30.7035L23.2336 30.0925L51.5304 31.8804V32.4914L23.2024 30.7035Z" fill="url(#paint91_linear_42_29720)"/>
<path d="M23.2336 30.0925L23.2711 29.4879L51.5305 31.2695V31.8805L23.2336 30.0925Z" fill="url(#paint92_linear_42_29720)"/>
<path d="M23.2711 29.4879L23.3024 28.8769L51.5304 30.6584V31.2694L23.2711 29.4879Z" fill="url(#paint93_linear_42_29720)"/>
<path d="M23.3024 28.8769L23.3399 28.2723L51.5305 30.0474V30.6584L23.3024 28.8769Z" fill="url(#paint94_linear_42_29720)"/>
<path d="M23.3398 28.2723L23.3773 27.6613L51.5304 29.4364V30.0474L23.3398 28.2723Z" fill="url(#paint95_linear_42_29720)"/>
<path d="M23.3773 27.6613L24.5457 7.31836H51.5304V29.4364L23.3773 27.6613Z" fill="url(#paint96_linear_42_29720)"/>
</g>
<path d="M60.5587 54.9079V31.8765H76.3972V36.0635H64.7136V42.3535H75.7661V46.3732H64.7136V54.9079H60.5587Z" fill="white"/>
<path d="M82.92 38.6682V47.1707C82.92 49.6404 84.2133 51.5185 86.6687 51.5185C89.1241 51.5185 90.6361 49.4411 90.6361 46.9714V38.6682H94.4474V54.94H91.0173L90.7673 52.734C89.1616 54.3805 87.6809 55.1716 85.5066 55.1716C81.7891 55.1716 79.0837 52.2388 79.0837 47.1965V38.6618H82.9262L82.92 38.6682Z" fill="white"/>
<path d="M101.12 48.2191C101.37 50.2257 103.038 51.6792 105.75 51.6792C107.168 51.6792 109.024 51.1197 109.905 50.1614L112.36 52.6954C110.723 54.477 108.049 55.3324 105.687 55.3324C100.333 55.3324 97.1527 51.8722 97.1527 46.6691C97.1527 41.4659 100.364 38.1666 105.406 38.1666C110.448 38.1666 113.847 41.5238 113.247 48.2126H101.126L101.12 48.2191ZM109.561 44.894C109.311 42.7844 107.737 41.7296 105.531 41.7296C103.451 41.7296 101.751 42.7844 101.183 44.894H109.561Z" fill="white"/>
<path d="M120.014 31.8765V54.9079H116.203V31.8765H120.014Z" fill="white"/>
<path d="M149.429 43.1767C149.523 49.0101 146.124 54.9079 138.408 54.9079H129.748V31.8444H138.408C145.968 31.8444 149.335 37.4784 149.429 43.1767ZM133.872 50.7209H138.408C143.412 50.7209 145.399 46.9006 145.305 43.1446C145.212 39.5558 143.194 35.9605 138.408 35.9605H133.872V50.7209Z" fill="white"/>
<path d="M155.821 48.2191C156.071 50.2257 157.739 51.6792 160.45 51.6792C161.869 51.6792 163.724 51.1197 164.605 50.1614L167.061 52.6954C165.424 54.477 162.75 55.3324 160.388 55.3324C155.033 55.3324 151.853 51.8722 151.853 46.6691C151.853 41.4659 155.065 38.1666 160.107 38.1666C165.149 38.1666 168.548 41.5238 167.948 48.2126H155.827L155.821 48.2191ZM164.262 44.894C164.012 42.7844 162.437 41.7296 160.232 41.7296C158.151 41.7296 156.452 42.7844 155.883 44.894H164.262Z" fill="white"/>
<path d="M174.714 31.8765V54.9079H170.903V31.8765H174.714Z" fill="white"/>
<path d="M182.274 34.089C182.274 37.2212 177.738 37.2212 177.738 34.089C177.738 30.9568 182.274 30.9568 182.274 34.089ZM178.088 38.6039V54.9143H181.931V38.6039H178.088Z" fill="white"/>
<path d="M201.48 38.6296L194.87 54.9722H190.715L184.074 38.6296H188.26L190.403 44L192.796 50.8496L195.158 44.0643L197.301 38.6296H201.487H201.48Z" fill="white"/>
<path d="M206.616 48.2191C206.866 50.2257 208.534 51.6792 211.246 51.6792C212.664 51.6792 214.52 51.1197 215.401 50.1614L217.856 52.6954C216.219 54.477 213.545 55.3324 211.183 55.3324C205.829 55.3324 202.649 51.8722 202.649 46.6691C202.649 41.4659 205.86 38.1666 210.902 38.1666C215.944 38.1666 219.343 41.5238 218.743 48.2126H206.622L206.616 48.2191ZM215.057 44.894C214.807 42.7844 213.233 41.7296 211.027 41.7296C208.947 41.7296 207.247 42.7844 206.679 44.894H215.057Z" fill="white"/>
<path d="M225.26 38.6682L225.541 40.5462C226.741 38.5396 228.347 38.2373 229.915 38.2373C231.483 38.2373 233.064 38.8933 233.913 39.7873L232.183 43.2796C231.395 42.585 230.671 42.2249 229.415 42.2249C227.397 42.2249 225.541 43.3439 225.541 46.341V54.9079H221.699V38.6682H225.26Z" fill="white"/>
<path d="M251.995 38.6683L242.517 61.6996H238.299L241.198 54.6507L234.994 38.6747H239.468L241.829 45.6915L243.31 50.2708L244.916 45.788L247.752 38.6747H252.001L251.995 38.6683Z" fill="white"/>
</g>
<defs>
<linearGradient id="paint0_linear_42_29720" x1="22.8337" y1="14.0908" x2="53.6426" y2="72.012" gradientUnits="userSpaceOnUse">
<stop stop-color="#058DF3"/>
<stop offset="1" stop-color="#122C91"/>
</linearGradient>
<linearGradient id="paint1_linear_42_29720" x1="22.3839" y1="15.0352" x2="52.7885" y2="72.195" gradientUnits="userSpaceOnUse">
<stop stop-color="#058DF3"/>
<stop offset="1" stop-color="#122C91"/>
</linearGradient>
<linearGradient id="paint2_linear_42_29720" x1="24.5832" y1="13.8015" x2="55.0256" y2="71.0173" gradientUnits="userSpaceOnUse">
<stop stop-color="#058DF3"/>
<stop offset="1" stop-color="#122C91"/>
</linearGradient>
<linearGradient id="paint3_linear_42_29720" x1="24.8143" y1="13.6147" x2="55.2834" y2="70.8944" gradientUnits="userSpaceOnUse">
<stop stop-color="#058DF3"/>
<stop offset="1" stop-color="#122C91"/>
</linearGradient>
<linearGradient id="paint4_linear_42_29720" x1="25.0643" y1="13.4733" x2="55.5395" y2="70.7527" gradientUnits="userSpaceOnUse">
<stop stop-color="#058DF3"/>
<stop offset="1" stop-color="#122C91"/>
</linearGradient>
<linearGradient id="paint5_linear_42_29720" x1="25.3204" y1="13.332" x2="55.7891" y2="70.6116" gradientUnits="userSpaceOnUse">
<stop stop-color="#058DF3"/>
<stop offset="1" stop-color="#122C91"/>
</linearGradient>
<linearGradient id="paint6_linear_42_29720" x1="25.5703" y1="13.1903" x2="56.0393" y2="70.47" gradientUnits="userSpaceOnUse">
<stop stop-color="#058DF3"/>
<stop offset="1" stop-color="#122C91"/>
</linearGradient>
<linearGradient id="paint7_linear_42_29720" x1="25.8265" y1="13.049" x2="56.2952" y2="70.3286" gradientUnits="userSpaceOnUse">
<stop stop-color="#058DF3"/>
<stop offset="1" stop-color="#122C91"/>
</linearGradient>
<linearGradient id="paint8_linear_42_29720" x1="26.0764" y1="12.9072" x2="56.5454" y2="70.187" gradientUnits="userSpaceOnUse">
<stop stop-color="#058DF3"/>
<stop offset="1" stop-color="#122C91"/>
</linearGradient>
<linearGradient id="paint9_linear_42_29720" x1="26.3263" y1="12.766" x2="56.7951" y2="70.0456" gradientUnits="userSpaceOnUse">
<stop stop-color="#058DF3"/>
<stop offset="1" stop-color="#122C91"/>
</linearGradient>
<linearGradient id="paint10_linear_42_29720" x1="26.5888" y1="12.6178" x2="57.0642" y2="69.8973" gradientUnits="userSpaceOnUse">
<stop stop-color="#058DF3"/>
<stop offset="1" stop-color="#122C91"/>
</linearGradient>
<linearGradient id="paint11_linear_42_29720" x1="26.8574" y1="12.4701" x2="57.3261" y2="69.7497" gradientUnits="userSpaceOnUse">
<stop stop-color="#058DF3"/>
<stop offset="1" stop-color="#122C91"/>
</linearGradient>
<linearGradient id="paint12_linear_42_29720" x1="27.1198" y1="12.322" x2="57.5953" y2="69.6015" gradientUnits="userSpaceOnUse">
<stop stop-color="#058DF3"/>
<stop offset="1" stop-color="#122C91"/>
</linearGradient>
<linearGradient id="paint13_linear_42_29720" x1="27.3885" y1="12.1743" x2="57.8572" y2="69.4538" gradientUnits="userSpaceOnUse">
<stop stop-color="#058DF3"/>
<stop offset="1" stop-color="#122C91"/>
</linearGradient>
<linearGradient id="paint14_linear_42_29720" x1="27.6509" y1="12.0262" x2="58.1262" y2="69.2992" gradientUnits="userSpaceOnUse">
<stop stop-color="#058DF3"/>
<stop offset="1" stop-color="#122C91"/>
</linearGradient>
<linearGradient id="paint15_linear_42_29720" x1="27.9195" y1="11.8783" x2="58.3884" y2="69.1515" gradientUnits="userSpaceOnUse">
<stop stop-color="#058DF3"/>
<stop offset="1" stop-color="#122C91"/>
</linearGradient>
<linearGradient id="paint16_linear_42_29720" x1="28.1757" y1="11.7303" x2="58.6447" y2="69.01" gradientUnits="userSpaceOnUse">
<stop stop-color="#058DF3"/>
<stop offset="1" stop-color="#122C91"/>
</linearGradient>
<linearGradient id="paint17_linear_42_29720" x1="28.4256" y1="11.5888" x2="58.8946" y2="68.8686" gradientUnits="userSpaceOnUse">
<stop stop-color="#058DF3"/>
<stop offset="1" stop-color="#122C91"/>
</linearGradient>
<linearGradient id="paint18_linear_42_29720" x1="28.6756" y1="11.4473" x2="59.1509" y2="68.7268" gradientUnits="userSpaceOnUse">
<stop stop-color="#058DF3"/>
<stop offset="1" stop-color="#122C91"/>
</linearGradient>
<linearGradient id="paint19_linear_42_29720" x1="28.9317" y1="11.3059" x2="59.4006" y2="68.5856" gradientUnits="userSpaceOnUse">
<stop stop-color="#058DF3"/>
<stop offset="1" stop-color="#122C91"/>
</linearGradient>
<linearGradient id="paint20_linear_42_29720" x1="29.1816" y1="11.1644" x2="59.6505" y2="68.4441" gradientUnits="userSpaceOnUse">
<stop stop-color="#058DF3"/>
<stop offset="1" stop-color="#122C91"/>
</linearGradient>
<linearGradient id="paint21_linear_42_29720" x1="29.4315" y1="11.0229" x2="59.9068" y2="68.3023" gradientUnits="userSpaceOnUse">
<stop stop-color="#058DF3"/>
<stop offset="1" stop-color="#122C91"/>
</linearGradient>
<linearGradient id="paint22_linear_42_29720" x1="29.6877" y1="10.8815" x2="60.1565" y2="68.1611" gradientUnits="userSpaceOnUse">
<stop stop-color="#058DF3"/>
<stop offset="1" stop-color="#122C91"/>
</linearGradient>
<linearGradient id="paint23_linear_42_29720" x1="29.9376" y1="10.7399" x2="60.413" y2="68.0194" gradientUnits="userSpaceOnUse">
<stop stop-color="#058DF3"/>
<stop offset="1" stop-color="#122C91"/>
</linearGradient>
<linearGradient id="paint24_linear_42_29720" x1="30.1875" y1="10.5985" x2="60.6628" y2="67.8779" gradientUnits="userSpaceOnUse">
<stop stop-color="#058DF3"/>
<stop offset="1" stop-color="#122C91"/>
</linearGradient>
<linearGradient id="paint25_linear_42_29720" x1="30.4437" y1="10.457" x2="60.9124" y2="67.7366" gradientUnits="userSpaceOnUse">
<stop stop-color="#058DF3"/>
<stop offset="1" stop-color="#122C91"/>
</linearGradient>
<linearGradient id="paint26_linear_42_29720" x1="30.6936" y1="10.3155" x2="61.1688" y2="67.5949" gradientUnits="userSpaceOnUse">
<stop stop-color="#058DF3"/>
<stop offset="1" stop-color="#122C91"/>
</linearGradient>
<linearGradient id="paint27_linear_42_29720" x1="30.9498" y1="10.1739" x2="61.4187" y2="67.4536" gradientUnits="userSpaceOnUse">
<stop stop-color="#058DF3"/>
<stop offset="1" stop-color="#122C91"/>
</linearGradient>
<linearGradient id="paint28_linear_42_29720" x1="31.1997" y1="10.0325" x2="61.675" y2="67.3119" gradientUnits="userSpaceOnUse">
<stop stop-color="#058DF3"/>
<stop offset="1" stop-color="#122C91"/>
</linearGradient>
<linearGradient id="paint29_linear_42_29720" x1="31.4496" y1="9.88451" x2="61.925" y2="67.1704" gradientUnits="userSpaceOnUse">
<stop stop-color="#058DF3"/>
<stop offset="1" stop-color="#122C91"/>
</linearGradient>
<linearGradient id="paint30_linear_42_29720" x1="31.7057" y1="9.74306" x2="62.1747" y2="67.0292" gradientUnits="userSpaceOnUse">
<stop stop-color="#058DF3"/>
<stop offset="1" stop-color="#122C91"/>
</linearGradient>
<linearGradient id="paint31_linear_42_29720" x1="31.9557" y1="9.60151" x2="62.4311" y2="66.8874" gradientUnits="userSpaceOnUse">
<stop stop-color="#058DF3"/>
<stop offset="1" stop-color="#122C91"/>
</linearGradient>
<linearGradient id="paint32_linear_42_29720" x1="32.2056" y1="9.46006" x2="62.6809" y2="66.746" gradientUnits="userSpaceOnUse">
<stop stop-color="#058DF3"/>
<stop offset="1" stop-color="#122C91"/>
</linearGradient>
<linearGradient id="paint33_linear_42_29720" x1="32.4617" y1="9.31854" x2="62.9371" y2="66.6109" gradientUnits="userSpaceOnUse">
<stop stop-color="#058DF3"/>
<stop offset="1" stop-color="#122C91"/>
</linearGradient>
<linearGradient id="paint34_linear_42_29720" x1="32.7117" y1="9.1771" x2="63.187" y2="66.4694" gradientUnits="userSpaceOnUse">
<stop stop-color="#058DF3"/>
<stop offset="1" stop-color="#122C91"/>
</linearGradient>
<linearGradient id="paint35_linear_42_29720" x1="32.9616" y1="9.03564" x2="63.4369" y2="66.328" gradientUnits="userSpaceOnUse">
<stop stop-color="#058DF3"/>
<stop offset="1" stop-color="#122C91"/>
</linearGradient>
<linearGradient id="paint36_linear_42_29720" x1="33.2178" y1="8.894" x2="63.6933" y2="66.1864" gradientUnits="userSpaceOnUse">
<stop stop-color="#058DF3"/>
<stop offset="1" stop-color="#122C91"/>
</linearGradient>
<linearGradient id="paint37_linear_42_29720" x1="33.4676" y1="8.7526" x2="63.943" y2="66.045" gradientUnits="userSpaceOnUse">
<stop stop-color="#058DF3"/>
<stop offset="1" stop-color="#122C91"/>
</linearGradient>
<linearGradient id="paint38_linear_42_29720" x1="33.7302" y1="8.63676" x2="64.1795" y2="65.8783" gradientUnits="userSpaceOnUse">
<stop stop-color="#058DF3"/>
<stop offset="1" stop-color="#122C91"/>
</linearGradient>
<linearGradient id="paint39_linear_42_29720" x1="35.4233" y1="7.77436" x2="65.8279" y2="64.9406" gradientUnits="userSpaceOnUse">
<stop stop-color="#058DF3"/>
<stop offset="1" stop-color="#122C91"/>
</linearGradient>
<linearGradient id="paint40_linear_42_29720" x1="6.85782" y1="23.3716" x2="37.2612" y2="80.5305" gradientUnits="userSpaceOnUse">
<stop stop-color="#058DF3"/>
<stop offset="1" stop-color="#122C91"/>
</linearGradient>
<linearGradient id="paint41_linear_42_29720" x1="10.7628" y1="21.2876" x2="41.1663" y2="78.4467" gradientUnits="userSpaceOnUse">
<stop stop-color="#058DF3"/>
<stop offset="1" stop-color="#122C91"/>
</linearGradient>
<linearGradient id="paint42_linear_42_29720" x1="14.6927" y1="19.1846" x2="45.0962" y2="76.3501" gradientUnits="userSpaceOnUse">
<stop stop-color="#058DF3"/>
<stop offset="1" stop-color="#122C91"/>
</linearGradient>
<linearGradient id="paint43_linear_42_29720" x1="15.6049" y1="18.67" x2="46.0279" y2="75.8542" gradientUnits="userSpaceOnUse">
<stop stop-color="#058DF3"/>
<stop offset="1" stop-color="#122C91"/>
</linearGradient>
<linearGradient id="paint44_linear_42_29720" x1="15.8548" y1="18.5285" x2="46.2779" y2="75.7192" gradientUnits="userSpaceOnUse">
<stop stop-color="#058DF3"/>
<stop offset="1" stop-color="#122C91"/>
</linearGradient>
<linearGradient id="paint45_linear_42_29720" x1="16.111" y1="18.387" x2="46.534" y2="75.5712" gradientUnits="userSpaceOnUse">
<stop stop-color="#058DF3"/>
<stop offset="1" stop-color="#122C91"/>
</linearGradient>
<linearGradient id="paint46_linear_42_29720" x1="16.3609" y1="18.2455" x2="46.7839" y2="75.4298" gradientUnits="userSpaceOnUse">
<stop stop-color="#058DF3"/>
<stop offset="1" stop-color="#122C91"/>
</linearGradient>
<linearGradient id="paint47_linear_42_29720" x1="16.6108" y1="18.0977" x2="47.0338" y2="75.2883" gradientUnits="userSpaceOnUse">
<stop stop-color="#058DF3"/>
<stop offset="1" stop-color="#122C91"/>
</linearGradient>
<linearGradient id="paint48_linear_42_29720" x1="16.867" y1="17.9561" x2="47.2901" y2="75.1468" gradientUnits="userSpaceOnUse">
<stop stop-color="#058DF3"/>
<stop offset="1" stop-color="#122C91"/>
</linearGradient>
<linearGradient id="paint49_linear_42_29720" x1="17.1169" y1="17.8147" x2="47.5399" y2="75.0053" gradientUnits="userSpaceOnUse">
<stop stop-color="#058DF3"/>
<stop offset="1" stop-color="#122C91"/>
</linearGradient>
<linearGradient id="paint50_linear_42_29720" x1="17.3668" y1="17.6731" x2="47.7899" y2="74.8638" gradientUnits="userSpaceOnUse">
<stop stop-color="#058DF3"/>
<stop offset="1" stop-color="#122C91"/>
</linearGradient>
<linearGradient id="paint51_linear_42_29720" x1="17.623" y1="17.5316" x2="48.046" y2="74.7223" gradientUnits="userSpaceOnUse">
<stop stop-color="#058DF3"/>
<stop offset="1" stop-color="#122C91"/>
</linearGradient>
<linearGradient id="paint52_linear_42_29720" x1="17.8729" y1="17.3901" x2="48.296" y2="74.5744" gradientUnits="userSpaceOnUse">
<stop stop-color="#058DF3"/>
<stop offset="1" stop-color="#122C91"/>
</linearGradient>
<linearGradient id="paint53_linear_42_29720" x1="18.1228" y1="17.2486" x2="48.5458" y2="74.4329" gradientUnits="userSpaceOnUse">
<stop stop-color="#058DF3"/>
<stop offset="1" stop-color="#122C91"/>
</linearGradient>
<linearGradient id="paint54_linear_42_29720" x1="18.379" y1="17.1073" x2="48.7955" y2="74.2916" gradientUnits="userSpaceOnUse">
<stop stop-color="#058DF3"/>
<stop offset="1" stop-color="#122C91"/>
</linearGradient>
<linearGradient id="paint55_linear_42_29720" x1="18.6289" y1="16.9592" x2="49.052" y2="74.1499" gradientUnits="userSpaceOnUse">
<stop stop-color="#058DF3"/>
<stop offset="1" stop-color="#122C91"/>
</linearGradient>
<linearGradient id="paint56_linear_42_29720" x1="18.8788" y1="16.8178" x2="49.3018" y2="74.0084" gradientUnits="userSpaceOnUse">
<stop stop-color="#058DF3"/>
<stop offset="1" stop-color="#122C91"/>
</linearGradient>
<linearGradient id="paint57_linear_42_29720" x1="19.135" y1="16.6827" x2="49.558" y2="73.8669" gradientUnits="userSpaceOnUse">
<stop stop-color="#058DF3"/>
<stop offset="1" stop-color="#122C91"/>
</linearGradient>
<linearGradient id="paint58_linear_42_29720" x1="19.3849" y1="16.5348" x2="49.8079" y2="73.7255" gradientUnits="userSpaceOnUse">
<stop stop-color="#058DF3"/>
<stop offset="1" stop-color="#122C91"/>
</linearGradient>
<linearGradient id="paint59_linear_42_29720" x1="19.6348" y1="16.3932" x2="50.0579" y2="73.5839" gradientUnits="userSpaceOnUse">
<stop stop-color="#058DF3"/>
<stop offset="1" stop-color="#122C91"/>
</linearGradient>
<linearGradient id="paint60_linear_42_29720" x1="19.8847" y1="16.2518" x2="50.3077" y2="73.436" gradientUnits="userSpaceOnUse">
<stop stop-color="#058DF3"/>
<stop offset="1" stop-color="#122C91"/>
</linearGradient>
<linearGradient id="paint61_linear_42_29720" x1="20.1284" y1="16.1102" x2="50.5515" y2="73.301" gradientUnits="userSpaceOnUse">
<stop stop-color="#058DF3"/>
<stop offset="1" stop-color="#122C91"/>
</linearGradient>
<linearGradient id="paint62_linear_42_29720" x1="20.3721" y1="15.9752" x2="50.7887" y2="73.1661" gradientUnits="userSpaceOnUse">
<stop stop-color="#058DF3"/>
<stop offset="1" stop-color="#122C91"/>
</linearGradient>
<linearGradient id="paint63_linear_42_29720" x1="20.6095" y1="15.8402" x2="51.0325" y2="73.0308" gradientUnits="userSpaceOnUse">
<stop stop-color="#058DF3"/>
<stop offset="1" stop-color="#122C91"/>
</linearGradient>
<linearGradient id="paint64_linear_42_29720" x1="20.8469" y1="15.7051" x2="51.2699" y2="72.8958" gradientUnits="userSpaceOnUse">
<stop stop-color="#058DF3"/>
<stop offset="1" stop-color="#122C91"/>
</linearGradient>
<linearGradient id="paint65_linear_42_29720" x1="21.0843" y1="15.57" x2="51.5073" y2="72.7607" gradientUnits="userSpaceOnUse">
<stop stop-color="#058DF3"/>
<stop offset="1" stop-color="#122C91"/>
</linearGradient>
<linearGradient id="paint66_linear_42_29720" x1="21.3217" y1="15.4349" x2="51.7449" y2="72.6256" gradientUnits="userSpaceOnUse">
<stop stop-color="#058DF3"/>
<stop offset="1" stop-color="#122C91"/>
</linearGradient>
<linearGradient id="paint67_linear_42_29720" x1="21.5716" y1="15.2935" x2="51.9946" y2="72.4841" gradientUnits="userSpaceOnUse">
<stop stop-color="#058DF3"/>
<stop offset="1" stop-color="#122C91"/>
</linearGradient>
<linearGradient id="paint68_linear_42_29720" x1="21.8278" y1="15.152" x2="52.2508" y2="72.3427" gradientUnits="userSpaceOnUse">
<stop stop-color="#058DF3"/>
<stop offset="1" stop-color="#122C91"/>
</linearGradient>
<linearGradient id="paint69_linear_42_29720" x1="22.0777" y1="15.0104" x2="52.5007" y2="72.1947" gradientUnits="userSpaceOnUse">
<stop stop-color="#058DF3"/>
<stop offset="1" stop-color="#122C91"/>
</linearGradient>
<linearGradient id="paint70_linear_42_29720" x1="22.3276" y1="14.869" x2="52.7507" y2="72.0532" gradientUnits="userSpaceOnUse">
<stop stop-color="#058DF3"/>
<stop offset="1" stop-color="#122C91"/>
</linearGradient>
<linearGradient id="paint71_linear_42_29720" x1="22.5838" y1="14.7211" x2="53.0068" y2="71.9117" gradientUnits="userSpaceOnUse">
<stop stop-color="#058DF3"/>
<stop offset="1" stop-color="#122C91"/>
</linearGradient>
<linearGradient id="paint72_linear_42_29720" x1="22.8337" y1="14.5796" x2="53.2568" y2="71.7702" gradientUnits="userSpaceOnUse">
<stop stop-color="#058DF3"/>
<stop offset="1" stop-color="#122C91"/>
</linearGradient>
<linearGradient id="paint73_linear_42_29720" x1="23.0836" y1="14.4381" x2="53.5067" y2="71.6288" gradientUnits="userSpaceOnUse">
<stop stop-color="#058DF3"/>
<stop offset="1" stop-color="#122C91"/>
</linearGradient>
<linearGradient id="paint74_linear_42_29720" x1="23.3398" y1="14.2966" x2="53.7564" y2="71.4875" gradientUnits="userSpaceOnUse">
<stop stop-color="#058DF3"/>
<stop offset="1" stop-color="#122C91"/>
</linearGradient>
<linearGradient id="paint75_linear_42_29720" x1="23.5897" y1="14.1551" x2="54.0128" y2="71.3458" gradientUnits="userSpaceOnUse">
<stop stop-color="#058DF3"/>
<stop offset="1" stop-color="#122C91"/>
</linearGradient>
<linearGradient id="paint76_linear_42_29720" x1="23.8396" y1="14.0136" x2="54.2626" y2="71.1978" gradientUnits="userSpaceOnUse">
<stop stop-color="#058DF3"/>
<stop offset="1" stop-color="#122C91"/>
</linearGradient>
<linearGradient id="paint77_linear_42_29720" x1="24.0895" y1="13.8721" x2="54.5125" y2="71.0563" gradientUnits="userSpaceOnUse">
<stop stop-color="#058DF3"/>
<stop offset="1" stop-color="#122C91"/>
</linearGradient>
<linearGradient id="paint78_linear_42_29720" x1="24.3457" y1="13.7306" x2="54.7687" y2="70.9148" gradientUnits="userSpaceOnUse">
<stop stop-color="#058DF3"/>
<stop offset="1" stop-color="#122C91"/>
</linearGradient>
<linearGradient id="paint79_linear_42_29720" x1="24.5956" y1="13.5827" x2="55.0187" y2="70.7733" gradientUnits="userSpaceOnUse">
<stop stop-color="#058DF3"/>
<stop offset="1" stop-color="#122C91"/>
</linearGradient>
<linearGradient id="paint80_linear_42_29720" x1="24.8455" y1="13.4412" x2="55.2686" y2="70.6319" gradientUnits="userSpaceOnUse">
<stop stop-color="#058DF3"/>
<stop offset="1" stop-color="#122C91"/>
</linearGradient>
<linearGradient id="paint81_linear_42_29720" x1="25.1017" y1="13.2997" x2="55.5248" y2="70.4904" gradientUnits="userSpaceOnUse">
<stop stop-color="#058DF3"/>
<stop offset="1" stop-color="#122C91"/>
</linearGradient>
<linearGradient id="paint82_linear_42_29720" x1="25.3516" y1="13.1582" x2="55.7746" y2="70.3489" gradientUnits="userSpaceOnUse">
<stop stop-color="#058DF3"/>
<stop offset="1" stop-color="#122C91"/>
</linearGradient>
<linearGradient id="paint83_linear_42_29720" x1="25.6016" y1="13.0167" x2="56.0247" y2="70.2074" gradientUnits="userSpaceOnUse">
<stop stop-color="#058DF3"/>
<stop offset="1" stop-color="#122C91"/>
</linearGradient>
<linearGradient id="paint84_linear_42_29720" x1="25.8577" y1="12.8752" x2="56.2807" y2="70.0594" gradientUnits="userSpaceOnUse">
<stop stop-color="#058DF3"/>
<stop offset="1" stop-color="#122C91"/>
</linearGradient>
<linearGradient id="paint85_linear_42_29720" x1="26.1077" y1="12.7337" x2="56.5307" y2="69.9179" gradientUnits="userSpaceOnUse">
<stop stop-color="#058DF3"/>
<stop offset="1" stop-color="#122C91"/>
</linearGradient>
<linearGradient id="paint86_linear_42_29720" x1="26.3575" y1="12.5858" x2="56.7805" y2="69.7765" gradientUnits="userSpaceOnUse">
<stop stop-color="#058DF3"/>
<stop offset="1" stop-color="#122C91"/>
</linearGradient>
<linearGradient id="paint87_linear_42_29720" x1="26.6138" y1="12.4443" x2="57.0304" y2="69.6352" gradientUnits="userSpaceOnUse">
<stop stop-color="#058DF3"/>
<stop offset="1" stop-color="#122C91"/>
</linearGradient>
<linearGradient id="paint88_linear_42_29720" x1="26.8637" y1="12.3028" x2="57.2867" y2="69.4935" gradientUnits="userSpaceOnUse">
<stop stop-color="#058DF3"/>
<stop offset="1" stop-color="#122C91"/>
</linearGradient>
<linearGradient id="paint89_linear_42_29720" x1="27.1136" y1="12.1613" x2="57.5367" y2="69.352" gradientUnits="userSpaceOnUse">
<stop stop-color="#058DF3"/>
<stop offset="1" stop-color="#122C91"/>
</linearGradient>
<linearGradient id="paint90_linear_42_29720" x1="27.3635" y1="12.0198" x2="57.7866" y2="69.2105" gradientUnits="userSpaceOnUse">
<stop stop-color="#058DF3"/>
<stop offset="1" stop-color="#122C91"/>
</linearGradient>
<linearGradient id="paint91_linear_42_29720" x1="27.6197" y1="11.8783" x2="58.0426" y2="69.0625" gradientUnits="userSpaceOnUse">
<stop stop-color="#058DF3"/>
<stop offset="1" stop-color="#122C91"/>
</linearGradient>
<linearGradient id="paint92_linear_42_29720" x1="27.8696" y1="11.7368" x2="58.2926" y2="68.9211" gradientUnits="userSpaceOnUse">
<stop stop-color="#058DF3"/>
<stop offset="1" stop-color="#122C91"/>
</linearGradient>
<linearGradient id="paint93_linear_42_29720" x1="28.1195" y1="11.5889" x2="58.5425" y2="68.7796" gradientUnits="userSpaceOnUse">
<stop stop-color="#058DF3"/>
<stop offset="1" stop-color="#122C91"/>
</linearGradient>
<linearGradient id="paint94_linear_42_29720" x1="28.3757" y1="11.4474" x2="58.7987" y2="68.6381" gradientUnits="userSpaceOnUse">
<stop stop-color="#058DF3"/>
<stop offset="1" stop-color="#122C91"/>
</linearGradient>
<linearGradient id="paint95_linear_42_29720" x1="28.6256" y1="11.3059" x2="59.0487" y2="68.4966" gradientUnits="userSpaceOnUse">
<stop stop-color="#058DF3"/>
<stop offset="1" stop-color="#122C91"/>
</linearGradient>
<linearGradient id="paint96_linear_42_29720" x1="33.0491" y1="8.72043" x2="63.7009" y2="66.3366" gradientUnits="userSpaceOnUse">
<stop stop-color="#058DF3"/>
<stop offset="1" stop-color="#122C91"/>
</linearGradient>
<clipPath id="clip0_42_29720">
<rect x="0.499512" y="0.0859375" width="261.001" height="66.5929" rx="33.2964" fill="white"/>
</clipPath>
</defs>
</svg>
