<svg width="27" height="40" viewBox="0 0 27 40" fill="none" xmlns="http://www.w3.org/2000/svg">
<g id="Group 62">
<path id="Vector" d="M0.293579 26.5564C0.293579 33.8126 6.12984 39.6832 13.3438 39.6832C20.5577 39.6832 26.3939 33.8126 26.3939 26.5564C26.3939 17.4105 13.3438 0.378418 13.3438 0.378418C13.3438 0.378418 0.293579 17.0073 0.293579 26.5564ZM16.1241 35.6015C16.1241 35.8283 15.9738 36.0298 15.7484 36.0802C15.047 36.2566 14.3457 36.3322 13.6193 36.3322C8.50943 36.3322 4.35141 32.1498 4.35141 27.0099C4.35141 26.3044 4.57684 25.0195 5.60383 22.9283C5.70402 22.7267 5.9545 22.6259 6.17994 22.6763C6.40537 22.7519 6.55566 22.9535 6.53061 23.2054C6.50557 23.407 6.50556 23.6085 6.50556 23.7597C6.50556 29.2775 10.4131 34.0394 15.7734 35.1228C15.9738 35.1984 16.1241 35.3748 16.1241 35.6015Z" fill="#A2B5FF"/>
</g>
</svg>
