<svg width="25" height="41" viewBox="0 0 25 41" fill="none" xmlns="http://www.w3.org/2000/svg">
<g id="Group 75">
<path id="Vector" d="M24.383 8.09184L17.6519 1.36083C17.4115 1.12043 17.075 0.976196 16.7384 0.976196H1.93021C1.59365 0.976196 1.2571 1.12043 1.01671 1.36083C0.776317 1.60122 0.63208 1.93777 0.63208 2.27432V32.7562C0.63208 33.0928 0.776317 33.4293 1.01671 33.6697C1.2571 33.9101 1.59365 34.0543 1.93021 34.0543H6.20921C6.40152 33.2851 6.64192 32.4197 7.02655 31.4581H3.22833V3.62052H16.2096V9.38997C16.2096 9.48613 16.2577 9.53421 16.3057 9.58228C16.3538 9.63036 16.45 9.67844 16.4981 9.67844H22.1713V31.5062H18.0366C18.3731 32.3716 18.6616 33.237 18.8539 34.1024H23.4695C23.806 34.1024 24.1426 33.9582 24.383 33.7178C24.6234 33.4774 24.7676 33.1409 24.7676 32.8043V9.05342C24.7676 8.66879 24.6234 8.33224 24.383 8.09184Z" fill="#A2B5FF"/>
<path id="Vector_2" d="M12.6037 25.881C8.37272 31.0254 7.60347 34.2948 7.79578 36.266C7.98809 38.718 10.0074 40.6892 12.5075 40.6892C15.0557 40.6892 17.123 38.6699 17.2192 36.1217C17.5558 31.8427 12.6037 25.881 12.6037 25.881ZM11.0651 38.3334C11.0651 38.3334 9.95932 38.8142 9.28622 37.3718C9.28622 37.3718 7.9881 35.7852 10.2478 31.7466C10.2478 31.7466 9.19006 34.7755 11.3536 37.3237C11.3055 37.3237 11.6902 37.9968 11.0651 38.3334Z" fill="#A2B5FF"/>
<g id="Group">
<path id="Vector_3" d="M12.6998 10.7362C10.6805 10.7362 9.09387 12.3709 9.09387 14.3421V15.5441H11.1132V14.3421C11.1132 13.4767 11.8344 12.7555 12.6998 12.7555C13.5652 12.7555 14.2864 13.4767 14.2864 14.3421V15.5441H16.3057V14.3421C16.3057 12.3228 14.7191 10.7362 12.6998 10.7362Z" fill="#A2B5FF"/>
<path id="Vector_4" d="M16.2578 15.9287H9.09407C8.46905 15.9287 7.94019 16.4576 7.94019 17.0826V22.804C7.94019 23.429 8.46905 23.9579 9.09407 23.9579H16.2578C16.8828 23.9579 17.4117 23.429 17.4117 22.804V17.1307C17.4598 16.4576 16.9309 15.9287 16.2578 15.9287ZM13.4212 20.1116V21.9866H11.9788V20.1116C11.6422 19.8712 11.4499 19.4865 11.4499 19.0538C11.4499 18.3326 12.0269 17.7557 12.7481 17.7557C13.4692 17.7557 14.0462 18.3326 14.0462 19.0538C13.9981 19.4865 13.7577 19.8712 13.4212 20.1116Z" fill="#A2B5FF"/>
</g>
</g>
</svg>
