<svg width="53" height="34" viewBox="0 0 53 34" fill="none" xmlns="http://www.w3.org/2000/svg">
<g id="Group 65">
<path id="Vector" d="M6.13364 1.04038C8.8292 -0.298139 12.0008 2.40062 14.9685 2.88044C18.6256 3.46888 22.3057 3.94551 26.0031 4.16146C27.7697 4.26113 29.6775 3.48932 31.3137 4.16146C31.7795 4.34994 32.412 4.71348 32.3922 5.21949C32.3654 6.00472 30.5554 5.96127 30.5956 6.74713C30.6084 7.00653 30.9815 7.15923 31.2377 7.18542C31.9559 7.26529 32.5456 6.52351 33.2541 6.38742C34.0892 6.22706 35.2073 5.78493 35.8098 6.38742C36.0264 6.60401 35.9561 7.03975 35.8098 7.30554C35.6366 7.6218 35.1242 7.60199 34.9044 7.88503C34.5326 8.36677 34.4355 9.02293 34.339 9.62542C34.1888 10.5633 33.6669 11.8009 34.339 12.473C34.6789 12.8129 35.4405 12.8129 35.7804 12.473C36.2155 12.0379 35.6232 11.2227 35.7804 10.6272C36.0097 9.77748 36.3394 8.78653 37.0972 8.3476C37.5176 8.10737 38.1565 8.06776 38.5488 8.3476C39.64 9.12963 38.7513 11.3824 39.8426 12.1645C40.0956 12.3472 40.4949 12.2948 40.7773 12.1645C41.7791 11.7153 42.0679 10.341 42.9598 9.70209C43.4799 9.33216 44.2747 9.41905 44.7206 8.96607C45.2759 8.40383 45.0069 7.28254 45.6094 6.77333C46.3812 6.121 47.7516 6.7203 48.5637 6.12419C48.9668 5.83221 49.1828 5.31214 49.3125 4.8304C49.5023 4.12824 48.8001 3.16348 49.3125 2.6466C49.6856 2.27795 50.4708 2.32715 50.8868 2.6466C51.442 3.07595 51.0037 4.12504 51.433 4.68025C51.6656 4.98374 52.3742 4.87384 52.4246 5.25272C52.5735 6.38423 50.4415 6.61679 50.0051 7.67227C49.6594 8.50733 50.4606 9.60498 50.0051 10.3838C49.5725 11.1294 47.9152 10.8061 47.7555 11.652L46.6904 17.2923C46.5345 18.1306 47.2124 19.1759 46.6904 19.848L43.0365 24.5402C42.7566 24.8986 42.7835 25.5215 43.0365 25.8978L45.9218 30.2105C46.3607 30.8692 46.4808 32.0275 45.9218 32.5866C45.426 33.0817 44.4472 32.899 43.8185 32.5866C42.7803 32.0735 42.0219 31.0385 41.5331 29.9441L41.2558 28.0938C40.9766 27.5124 40.3582 27.0862 39.7486 26.8696C38.3775 26.3841 36.6978 26.2416 35.3862 26.8696C34.7172 27.1929 34.6636 28.2842 33.9946 28.6036C33.3263 28.9231 32.4906 28.7832 31.7718 28.6036C31.2633 28.4739 30.9106 27.8714 30.3873 27.858C28.9274 27.8216 27.5256 28.7736 26.4344 29.7415C26.0191 30.1115 25.6383 30.6041 25.5425 31.1484C25.4224 31.8416 26.4414 32.653 26.005 33.2025C25.7156 33.5577 25.0467 33.3846 24.6275 33.2025C24.0953 32.9661 23.659 32.4569 23.4494 31.9145C23.3427 31.6442 23.5331 31.3286 23.4494 31.0558C23.0737 29.831 22.4246 28.4771 21.2931 27.8785C20.8765 27.6587 20.2945 27.6555 19.8817 27.8785C19.5859 28.0407 19.6632 28.663 19.3297 28.7327C18.7905 28.8496 18.2614 28.2842 17.935 27.8388C17.6327 27.4184 17.8321 26.7636 17.5363 26.3412C17.1663 25.8154 16.5715 25.4295 15.962 25.2359C14.3513 24.7267 12.5144 25.7215 10.9005 25.2359C8.07912 24.3811 5.39378 22.6266 3.53327 20.3374C2.14556 18.627 1.49962 16.3678 1.08433 14.2051C0.778288 12.6142 0.478639 10.8502 1.08433 9.34686L3.3071 3.83625C3.64316 2.99992 2.51229 1.83582 3.09178 1.14772C3.35757 0.828262 3.97667 0.818039 4.33574 1.0276C4.95485 1.3905 4.49547 2.98075 5.21105 2.98778C5.9311 2.99609 5.49153 1.36303 6.13364 1.04038Z" fill="#A2B5FF"/>
</g>
</svg>
