<svg width="233" height="60" viewBox="0 0 233 60" fill="none" xmlns="http://www.w3.org/2000/svg">
<g id="Layer_1">
<g clip-path="url(#clip0_115_3464)">
<g id="Group">
<path id="Vector" d="M44.1706 48.1512C44.054 48.4589 43.9263 48.7609 43.7985 49.0572C43.4542 49.8378 43.0599 50.59 42.6211 51.308C42.2379 51.9348 41.8214 52.5388 41.3771 53.1143C40.8329 53.8152 40.2386 54.4705 39.6055 55.0745C36.3677 58.1686 32.0414 59.9807 27.2597 59.6616C21.0007 59.2513 15.3803 55.1885 13.2977 49.1882C12.9312 48.1284 12.6757 47.0172 12.5424 45.8491C11.9148 40.3104 14.2863 34.9028 17.513 30.6405C18.1683 29.7744 18.8625 28.9083 19.64 28.1504C19.4179 28.2758 12.2647 32.4754 11.3039 44.1453C11.0985 42.8119 11.0152 41.433 11.0762 40.0198C11.2317 36.4356 12.237 33.1193 14.0586 30.1505C16.0135 26.9652 18.035 23.8255 20.0232 20.6686C20.9118 19.2612 21.7893 17.8537 22.6612 16.4349C24.866 12.8336 26.671 8.99869 27.6429 4.76491C27.9094 3.59678 28.0872 2.40015 28.3038 1.22062C28.3537 1.20352 28.4037 1.18073 28.4537 1.16364C29.2035 3.79052 30.1143 6.38321 30.6585 9.05567C31.3305 12.3549 30.6641 15.5858 29.5311 18.6914C29.42 18.9934 29.309 19.2897 29.1868 19.586C28.2593 21.8938 27.0764 24.0363 25.8213 26.1332C25.3492 26.9196 24.8716 27.7003 24.3884 28.4809C23.2999 30.2531 22.1725 32.0081 21.2284 33.8714C19.8899 36.5097 19.3734 39.1366 19.6456 41.6723C19.74 42.5441 19.9288 43.4045 20.212 44.2479C20.212 44.2479 20.212 44.2536 20.212 44.2593C20.8507 46.3733 21.8948 48.3107 23.2499 49.9632C24.3329 51.2852 25.6158 52.4248 27.0486 53.3365C27.0542 53.3365 27.0653 53.3479 27.0708 53.3479C27.7317 53.7867 28.4315 54.1628 29.1701 54.4591C29.2534 54.4933 29.3367 54.5275 29.42 54.556C29.4978 54.5845 29.57 54.613 29.6422 54.6357C29.6589 54.6414 29.67 54.6471 29.6866 54.6528C29.7533 54.6756 29.8199 54.6984 29.8921 54.7212C29.9254 54.7326 29.9532 54.744 29.9865 54.7497C30.0421 54.7668 30.1031 54.7896 30.1587 54.8067C30.2087 54.8238 30.2642 54.8409 30.3142 54.8523C30.3586 54.8637 30.403 54.8751 30.4475 54.8865C30.453 54.8865 30.4586 54.8865 30.4697 54.8922C30.5141 54.9036 30.553 54.915 30.5974 54.9264C30.6696 54.9434 30.7363 54.9605 30.8085 54.9776C30.9195 55.0061 31.0306 55.0289 31.1472 55.0517C31.1917 55.0631 31.2417 55.0745 31.2861 55.0802C31.4527 55.1144 31.6249 55.1429 31.797 55.1657C31.8914 55.1771 31.9858 55.1942 32.0858 55.2056C32.258 55.2284 32.4301 55.2455 32.6079 55.2569C32.6912 55.2626 32.7689 55.2682 32.8522 55.2682C32.88 55.2682 32.9078 55.2682 32.9411 55.2682C33.0188 55.2682 33.091 55.2739 33.1688 55.2739C33.2632 55.2739 33.3576 55.2739 33.452 55.2739C38.2004 55.2739 42.2935 52.3565 44.1762 48.1455L44.1706 48.1512Z" fill="#005FB1"/>
<g id="Clip path group">
<mask id="mask0_115_3464" style="mask-type:luminance" maskUnits="userSpaceOnUse" x="11" y="1" width="34" height="59">
<g id="clippath">
<path id="Vector_2" d="M44.1706 48.1512C44.054 48.4589 43.9263 48.7609 43.7985 49.0572C43.4542 49.8378 43.0599 50.59 42.6211 51.308C42.2379 51.9348 41.8214 52.5388 41.3771 53.1143C40.8329 53.8152 40.2386 54.4705 39.6055 55.0745C36.3677 58.1686 32.0414 59.9807 27.2597 59.6616C21.0007 59.2513 15.3803 55.1885 13.2977 49.1882C12.9312 48.1284 12.6757 47.0172 12.5424 45.8491C11.9148 40.3104 14.2863 34.9028 17.513 30.6405C18.1683 29.7744 18.8625 28.9083 19.64 28.1504C19.4179 28.2758 12.2647 32.4754 11.3039 44.1453C11.0985 42.8119 11.0152 41.433 11.0762 40.0198C11.2317 36.4356 12.237 33.1193 14.0586 30.1505C16.0135 26.9652 18.035 23.8255 20.0232 20.6686C20.9118 19.2612 21.7893 17.8537 22.6612 16.4349C24.866 12.8336 26.671 8.99869 27.6429 4.76491C27.9094 3.59678 28.0872 2.40015 28.3038 1.22062C28.3537 1.20352 28.4037 1.18073 28.4537 1.16364C29.2035 3.79052 30.1143 6.38321 30.6585 9.05567C31.3305 12.3549 30.6641 15.5858 29.5311 18.6914C29.42 18.9934 29.309 19.2897 29.1868 19.586C28.2593 21.8938 27.0764 24.0363 25.8213 26.1332C25.3492 26.9196 24.8716 27.7003 24.3884 28.4809C23.2999 30.2531 22.1725 32.0081 21.2284 33.8714C19.8899 36.5097 19.3734 39.1366 19.6456 41.6723C19.74 42.5441 19.9288 43.4045 20.212 44.2479C20.212 44.2479 20.212 44.2536 20.212 44.2593C20.8507 46.3733 21.8948 48.3107 23.2499 49.9632C24.3329 51.2852 25.6158 52.4248 27.0486 53.3365C27.0542 53.3365 27.0653 53.3479 27.0708 53.3479C27.7317 53.7867 28.4315 54.1628 29.1701 54.4591C29.2534 54.4933 29.3367 54.5275 29.42 54.556C29.4978 54.5845 29.57 54.613 29.6422 54.6357C29.6589 54.6414 29.67 54.6471 29.6866 54.6528C29.7533 54.6756 29.8199 54.6984 29.8921 54.7212C29.9254 54.7326 29.9532 54.744 29.9865 54.7497C30.0421 54.7668 30.1031 54.7896 30.1587 54.8067C30.2087 54.8238 30.2642 54.8409 30.3142 54.8523C30.3586 54.8637 30.403 54.8751 30.4475 54.8865C30.453 54.8865 30.4586 54.8865 30.4697 54.8922C30.5141 54.9036 30.553 54.915 30.5974 54.9264C30.6696 54.9434 30.7363 54.9605 30.8085 54.9776C30.9195 55.0061 31.0306 55.0289 31.1472 55.0517C31.1917 55.0631 31.2417 55.0745 31.2861 55.0802C31.4527 55.1144 31.6249 55.1429 31.797 55.1657C31.8914 55.1771 31.9858 55.1942 32.0858 55.2056C32.258 55.2284 32.4301 55.2455 32.6079 55.2569C32.6912 55.2626 32.7689 55.2682 32.8522 55.2682C32.88 55.2682 32.9078 55.2682 32.9411 55.2682C33.0188 55.2682 33.091 55.2739 33.1688 55.2739C33.2632 55.2739 33.3576 55.2739 33.452 55.2739C38.2004 55.2739 42.2935 52.3565 44.1762 48.1455L44.1706 48.1512Z" fill="white"/>
</g>
</mask>
<g mask="url(#mask0_115_3464)">
<g id="Group_2">
<path id="Vector_3" d="M44.1708 1.14655H11.0098V7.52286H44.1708V1.14655Z" fill="#005FB1"/>
<path id="Vector_4" d="M44.1708 7.52283H11.0098V8.04706H44.1708V7.52283Z" fill="#005FB1"/>
<path id="Vector_5" d="M44.1708 8.04712H11.0098V8.57136H44.1708V8.04712Z" fill="#005FB1"/>
<path id="Vector_6" d="M44.1708 8.57135H11.0098V9.09559H44.1708V8.57135Z" fill="#005FB1"/>
<path id="Vector_7" d="M44.1708 9.09558H11.0098V9.61982H44.1708V9.09558Z" fill="#005FB1"/>
<path id="Vector_8" d="M44.1708 9.61981H11.0098V10.144H44.1708V9.61981Z" fill="#005FB1"/>
<path id="Vector_9" d="M44.1708 10.144H11.0098V10.6683H44.1708V10.144Z" fill="#005FB1"/>
<path id="Vector_10" d="M44.1708 10.6683H11.0098V11.1925H44.1708V10.6683Z" fill="#005FB1"/>
<path id="Vector_11" d="M44.1708 11.1925H11.0098V11.7167H44.1708V11.1925Z" fill="#005FB1"/>
<path id="Vector_12" d="M44.1708 11.7167H11.0098V12.241H44.1708V11.7167Z" fill="#005FB1"/>
<path id="Vector_13" d="M44.1708 12.241H11.0098V12.7652H44.1708V12.241Z" fill="#005FB1"/>
<path id="Vector_14" d="M44.1708 12.7652H11.0098V13.2894H44.1708V12.7652Z" fill="#005FB1"/>
<path id="Vector_15" d="M44.1708 13.2894H11.0098V13.8137H44.1708V13.2894Z" fill="#005FB1"/>
<path id="Vector_16" d="M44.1708 13.8137H11.0098V14.338H44.1708V13.8137Z" fill="#005FB1"/>
<path id="Vector_17" d="M44.1708 14.338H11.0098V14.8622H44.1708V14.338Z" fill="#005FB1"/>
<path id="Vector_18" d="M44.1708 14.8622H11.0098V15.3864H44.1708V14.8622Z" fill="#005FB1"/>
<path id="Vector_19" d="M44.1708 15.3864H11.0098V15.9107H44.1708V15.3864Z" fill="#005FB1"/>
<path id="Vector_20" d="M44.1708 15.9106H11.0098V16.4349H44.1708V15.9106Z" fill="#005FB1"/>
<path id="Vector_21" d="M44.1708 16.4349H11.0098V16.9591H44.1708V16.4349Z" fill="#005FB1"/>
<path id="Vector_22" d="M44.1708 16.9591H11.0098V17.4833H44.1708V16.9591Z" fill="#005FB1"/>
<path id="Vector_23" d="M44.1708 17.4833H11.0098V18.0076H44.1708V17.4833Z" fill="#005FB1"/>
<path id="Vector_24" d="M44.1708 18.0076H11.0098V18.5318H44.1708V18.0076Z" fill="#005FB1"/>
<path id="Vector_25" d="M44.1708 18.5318H11.0098V19.056H44.1708V18.5318Z" fill="#005FB1"/>
<path id="Vector_26" d="M44.1708 19.056H11.0098V19.5803H44.1708V19.056Z" fill="#005FB1"/>
<path id="Vector_27" d="M44.1708 19.5803H11.0098V20.1046H44.1708V19.5803Z" fill="#005FB1"/>
<path id="Vector_28" d="M44.1708 20.1046H11.0098V20.6288H44.1708V20.1046Z" fill="#005FB1"/>
<path id="Vector_29" d="M44.1708 20.6288H11.0098V21.153H44.1708V20.6288Z" fill="#005FB1"/>
<path id="Vector_30" d="M44.1708 21.153H11.0098V21.6773H44.1708V21.153Z" fill="#005FB1"/>
<path id="Vector_31" d="M44.1708 21.6772H11.0098V22.2015H44.1708V21.6772Z" fill="#005FB1"/>
<path id="Vector_32" d="M44.1708 22.2015H11.0098V22.7257H44.1708V22.2015Z" fill="#005FB1"/>
<path id="Vector_33" d="M44.1708 22.7257H11.0098V23.2499H44.1708V22.7257Z" fill="#005FB1"/>
<path id="Vector_34" d="M44.1708 23.2499H11.0098V23.7742H44.1708V23.2499Z" fill="#005FB1"/>
<path id="Vector_35" d="M44.1708 23.7742H11.0098V24.2984H44.1708V23.7742Z" fill="#005FB1"/>
<path id="Vector_36" d="M44.1708 24.2984H11.0098V24.8226H44.1708V24.2984Z" fill="#005FB1"/>
<path id="Vector_37" d="M44.1708 24.8226H11.0098V25.3469H44.1708V24.8226Z" fill="#005FB1"/>
<path id="Vector_38" d="M44.1708 25.3469H11.0098V25.8712H44.1708V25.3469Z" fill="#005FB1"/>
<path id="Vector_39" d="M44.1708 25.8712H11.0098V26.3954H44.1708V25.8712Z" fill="#005FB1"/>
<path id="Vector_40" d="M44.1708 26.3954H11.0098V26.9196H44.1708V26.3954Z" fill="#005FB1"/>
<path id="Vector_41" d="M44.1708 26.9196H11.0098V27.4439H44.1708V26.9196Z" fill="#005FB1"/>
<path id="Vector_42" d="M44.1708 27.4438H11.0098V27.9681H44.1708V27.4438Z" fill="#005FB1"/>
<path id="Vector_43" d="M44.1708 27.9681H11.0098V28.4923H44.1708V27.9681Z" fill="#005FB1"/>
<path id="Vector_44" d="M44.1708 28.4923H11.0098V29.0165H44.1708V28.4923Z" fill="#005FB1"/>
<path id="Vector_45" d="M44.1708 29.0165H11.0098V29.5408H44.1708V29.0165Z" fill="#005FB1"/>
<path id="Vector_46" d="M44.1708 29.5408H11.0098V30.065H44.1708V29.5408Z" fill="#005FB1"/>
<path id="Vector_47" d="M44.1708 30.065H11.0098V30.5892H44.1708V30.065Z" fill="#005FB1"/>
<path id="Vector_48" d="M44.1708 30.5892H11.0098V31.1135H44.1708V30.5892Z" fill="#005FB1"/>
<path id="Vector_49" d="M44.1708 31.1135H11.0098V31.6378H44.1708V31.1135Z" fill="#005FB1"/>
<path id="Vector_50" d="M44.1708 31.6378H11.0098V32.162H44.1708V31.6378Z" fill="#005FB1"/>
<path id="Vector_51" d="M44.1708 32.162H11.0098V32.6862H44.1708V32.162Z" fill="#005FB1"/>
<path id="Vector_52" d="M44.1708 32.6862H11.0098V33.2105H44.1708V32.6862Z" fill="#005FB1"/>
<path id="Vector_53" d="M44.1708 33.2104H11.0098V33.7347H44.1708V33.2104Z" fill="#005FB1"/>
<path id="Vector_54" d="M44.1708 33.7347H11.0098V34.2589H44.1708V33.7347Z" fill="#005FB1"/>
<path id="Vector_55" d="M44.1708 34.2589H11.0098V34.7831H44.1708V34.2589Z" fill="#005FB1"/>
<path id="Vector_56" d="M44.1708 34.7831H11.0098V35.3074H44.1708V34.7831Z" fill="#005FB1"/>
<path id="Vector_57" d="M44.1708 35.3074H11.0098V35.8316H44.1708V35.3074Z" fill="#005FB1"/>
<path id="Vector_58" d="M44.1708 35.8316H11.0098V36.3558H44.1708V35.8316Z" fill="#005FB1"/>
<path id="Vector_59" d="M44.1708 36.3558H11.0098V36.8801H44.1708V36.3558Z" fill="#005FB1"/>
<path id="Vector_60" d="M44.1708 36.8801H11.0098V37.4044H44.1708V36.8801Z" fill="#005FB1"/>
<path id="Vector_61" d="M44.1708 37.4044H11.0098V37.9286H44.1708V37.4044Z" fill="#005FB1"/>
<path id="Vector_62" d="M44.1708 37.9286H11.0098V38.4528H44.1708V37.9286Z" fill="#005FB1"/>
<path id="Vector_63" d="M44.1708 38.4528H11.0098V38.9771H44.1708V38.4528Z" fill="#005FB1"/>
<path id="Vector_64" d="M44.1708 38.9771H11.0098V39.5013H44.1708V38.9771Z" fill="#005FB1"/>
<path id="Vector_65" d="M44.1708 39.5013H11.0098V40.0255H44.1708V39.5013Z" fill="#005FB1"/>
<path id="Vector_66" d="M44.1708 40.0255H11.0098V40.5497H44.1708V40.0255Z" fill="#005FB1"/>
<path id="Vector_67" d="M44.1708 40.5497H11.0098V41.074H44.1708V40.5497Z" fill="#005FB1"/>
<path id="Vector_68" d="M44.1708 41.074H11.0098V41.5982H44.1708V41.074Z" fill="#005FB1"/>
<path id="Vector_69" d="M44.1708 41.6039H11.0098V42.1282H44.1708V41.6039Z" fill="#005FB1"/>
<path id="Vector_70" d="M44.1708 42.1282H11.0098V42.6524H44.1708V42.1282Z" fill="#005FB1"/>
<path id="Vector_71" d="M44.1708 42.6524H11.0098V43.1766H44.1708V42.6524Z" fill="#005FB1"/>
<path id="Vector_72" d="M44.1708 43.1766H11.0098V43.7009H44.1708V43.1766Z" fill="#005FB1"/>
<path id="Vector_73" d="M44.1708 43.7009H11.0098V44.2251H44.1708V43.7009Z" fill="#005FB1"/>
<path id="Vector_74" d="M44.1708 44.2251H11.0098V44.7493H44.1708V44.2251Z" fill="#005FB1"/>
<path id="Vector_75" d="M44.1708 44.7493H11.0098V45.2736H44.1708V44.7493Z" fill="#005FB1"/>
<path id="Vector_76" d="M44.1708 45.2736H11.0098V45.7978H44.1708V45.2736Z" fill="#005FB1"/>
<path id="Vector_77" d="M44.1708 45.7979H11.0098V46.3221H44.1708V45.7979Z" fill="#005FB1"/>
<path id="Vector_78" d="M44.1708 46.322H11.0098V46.8463H44.1708V46.322Z" fill="#005FB1"/>
<path id="Vector_79" d="M44.1708 46.8463H11.0098V47.3706H44.1708V46.8463Z" fill="#005FB1"/>
<path id="Vector_80" d="M44.1708 47.3705H11.0098V47.8948H44.1708V47.3705Z" fill="#005FB1"/>
<path id="Vector_81" d="M44.1708 47.8948H11.0098V48.419H44.1708V47.8948Z" fill="#005FB1"/>
<path id="Vector_82" d="M44.1708 48.419H11.0098V48.9432H44.1708V48.419Z" fill="#005FB1"/>
<path id="Vector_83" d="M44.1708 48.9432H11.0098V49.4675H44.1708V48.9432Z" fill="#005FB1"/>
<path id="Vector_84" d="M44.1708 49.4675H11.0098V49.9917H44.1708V49.4675Z" fill="#005FB1"/>
<path id="Vector_85" d="M44.1708 49.9917H11.0098V50.5159H44.1708V49.9917Z" fill="#005FB1"/>
<path id="Vector_86" d="M44.1708 50.5159H11.0098V51.0402H44.1708V50.5159Z" fill="#005FB1"/>
<path id="Vector_87" d="M44.1708 51.0402H11.0098V51.5644H44.1708V51.0402Z" fill="#005FB1"/>
<path id="Vector_88" d="M44.1708 51.5644H11.0098V52.0886H44.1708V51.5644Z" fill="#005FB1"/>
<path id="Vector_89" d="M44.1708 52.0887H11.0098V52.6129H44.1708V52.0887Z" fill="#005FB1"/>
<path id="Vector_90" d="M44.1708 52.6129H11.0098V53.1372H44.1708V52.6129Z" fill="#005FB1"/>
<path id="Vector_91" d="M44.1708 53.1371H11.0098V53.6614H44.1708V53.1371Z" fill="#005FB1"/>
<path id="Vector_92" d="M44.1708 53.6614H11.0098V54.1856H44.1708V53.6614Z" fill="#005FB1"/>
<path id="Vector_93" d="M44.1708 54.1856H11.0098V54.7098H44.1708V54.1856Z" fill="#005FB1"/>
<path id="Vector_94" d="M44.1708 54.7098H11.0098V55.2341H44.1708V54.7098Z" fill="#005FB1"/>
<path id="Vector_95" d="M44.1708 55.2341H11.0098V55.7583H44.1708V55.2341Z" fill="#005FB1"/>
<path id="Vector_96" d="M44.1708 55.7583H11.0098V56.2825H44.1708V55.7583Z" fill="#005FB1"/>
<path id="Vector_97" d="M44.1708 56.2825H11.0098V56.8068H44.1708V56.2825Z" fill="#005FB1"/>
<path id="Vector_98" d="M44.1708 56.8068H11.0098V57.331H44.1708V56.8068Z" fill="#005FB1"/>
<path id="Vector_99" d="M44.1708 57.3311H11.0098V59.975H44.1708V57.3311Z" fill="#005FB1"/>
</g>
</g>
</g>
</g>
<g id="Group_3">
<path id="Vector_100" d="M45.4257 39.4934C45.3479 38.5304 45.198 37.556 44.9758 36.5759C44.2983 33.6014 42.9543 30.9802 41.4381 28.4502C41.4048 28.3932 41.3715 28.3419 41.3437 28.2906C41.1715 28.0114 40.9994 27.7265 40.8272 27.4473C40.0941 26.3305 39.2444 25.2991 38.2947 24.3817C38.4669 24.9287 38.6891 25.9544 38.5724 27.4359C38.3947 29.7551 37.4006 33.1854 34.1295 37.6528C33.3964 38.6557 32.7577 39.5788 32.1912 40.4279C31.8358 40.9635 31.5081 41.4763 31.2082 41.955C31.1694 42.0177 31.1305 42.0746 31.0916 42.1373C30.1864 43.522 29.3866 44.9636 28.7979 46.5022C28.7979 46.5079 28.7924 46.5136 28.7924 46.5193C28.1482 48.0635 28.1093 48.7416 28.1093 48.7416C28.0538 48.6675 28.0038 48.5877 27.9538 48.5136C27.1707 47.2828 26.8819 45.7101 27.1707 44.2628V44.24C27.2152 44.0519 27.2596 43.8696 27.3096 43.6815C27.354 43.4821 27.4262 43.2827 27.4873 43.0832L27.5761 42.7812L27.6872 42.4792L27.7983 42.1772L27.8538 42.0291C27.876 41.9778 27.8983 41.9265 27.9205 41.8809L28.1815 41.2826C28.2759 41.0832 28.3814 40.8837 28.4758 40.6843L28.6202 40.3823L28.7868 40.086L29.1201 39.4934C29.2422 39.2996 29.3644 39.1059 29.4866 38.9121L29.6699 38.6158C29.731 38.519 29.8032 38.4221 29.8698 38.3252L30.2697 37.7497L31.2305 36.365C31.8691 35.4134 32.4745 34.4333 33.0187 33.402C33.302 32.9005 33.5408 32.3649 33.7907 31.8406C33.9129 31.5785 34.0406 31.3164 34.1461 31.0429C34.1739 30.9802 34.1961 30.9175 34.2239 30.8548C34.3072 30.644 34.3905 30.4389 34.4738 30.228L34.6349 29.8235L34.7793 29.4075L35.0625 28.5756C35.1569 28.302 35.2291 28.0114 35.3124 27.7322L35.5457 26.8832C35.8456 25.6353 36.0677 24.3703 36.1955 23.0996C36.2121 22.9571 36.2232 22.8204 36.2343 22.6779C36.3121 21.7605 36.3454 20.8488 36.3287 19.9371L36.301 19.0709C36.2899 18.7803 36.2565 18.4954 36.2343 18.2105C36.2232 18.068 36.2121 17.9256 36.1955 17.7831L36.1399 17.3558L36.0844 16.9284L36.0566 16.7176L36.0177 16.5067C35.9678 16.2275 35.9233 15.9426 35.8678 15.6634L35.679 14.8314C35.5401 14.2844 35.3957 13.7374 35.218 13.2018C35.1347 12.9339 35.0347 12.6718 34.9403 12.4097C34.8515 12.1476 34.7404 11.8855 34.6404 11.629C34.4294 11.1105 34.1906 10.6148 33.9462 10.119C33.4353 9.14462 32.8688 8.19872 32.1746 7.37817L32.1579 7.38957C32.8521 9.43523 33.2076 11.5322 33.3464 13.6006C33.4131 14.632 33.4242 15.6577 33.3575 16.672C33.2909 17.6863 33.1854 18.6891 33.0021 19.6692C32.9299 20.0453 32.8521 20.4157 32.7633 20.7861C32.6244 21.3844 32.4634 21.9713 32.2634 22.5468C32.1746 22.8431 32.0635 23.1395 31.9524 23.4358C31.8913 23.601 31.8247 23.7663 31.7636 23.9315C31.6859 24.1594 31.5748 24.3817 31.4804 24.6039L31.1916 25.2763L30.8695 25.9316C30.7584 26.1481 30.664 26.3703 30.5418 26.5812L30.1975 27.2194L30.0253 27.5385L29.8365 27.8462C29.5755 28.2565 29.3533 28.6781 29.0756 29.077C28.8091 29.4759 28.5591 29.8862 28.2648 30.2736L27.8427 30.8605C27.7705 30.9574 27.7094 31.06 27.6317 31.1512L27.4095 31.4361L26.9652 32.0059L26.7431 32.2908C26.6653 32.3877 26.5876 32.4731 26.5098 32.57L26.0378 33.1227L25.8045 33.402L25.5546 33.7097L24.9937 34.3934C24.8993 34.5074 24.8049 34.6214 24.716 34.7353L24.4494 35.0943L23.9163 35.818L23.4164 36.5816C23.4164 36.5816 23.4109 36.5873 23.3998 36.6044C23.3998 36.6044 23.3942 36.6101 23.3942 36.6157L23.1665 36.9633L22.9333 37.3622C22.8 37.5901 22.6667 37.8181 22.539 38.0517C21.306 40.4621 19.5844 45.4708 23.2609 50.1604C24.3439 51.4824 25.6268 52.6221 27.0596 53.5338C27.0652 53.5338 27.0763 53.5452 27.0819 53.5452C27.7428 53.9839 28.4425 54.36 29.1812 54.6563C29.2645 54.6905 29.3478 54.7247 29.4311 54.7532C29.5088 54.7817 29.581 54.8102 29.6532 54.833C29.6699 54.8387 29.681 54.8444 29.6976 54.8501C29.7643 54.8729 29.8309 54.8956 29.9031 54.9184C29.9365 54.9298 29.9642 54.9412 29.9975 54.9469C30.0531 54.964 30.1142 54.9868 30.1697 55.0039C30.2197 55.021 30.2752 55.0381 30.3252 55.0495C30.3696 55.0609 30.4141 55.0723 30.4585 55.0837C30.4641 55.0837 30.4696 55.0837 30.4807 55.0894C30.5251 55.1008 30.564 55.1122 30.6085 55.1236C30.6806 55.1407 30.7473 55.1578 30.8195 55.1749C30.9306 55.2034 31.0416 55.2261 31.1583 55.2489C31.2027 55.2603 31.2527 55.2717 31.2971 55.2774C31.4637 55.3116 31.6359 55.3401 31.808 55.3629C31.9025 55.3743 31.9969 55.3914 32.0968 55.4028C32.269 55.4256 32.4412 55.4427 32.6189 55.4541C32.7022 55.4598 32.7799 55.4655 32.8632 55.4655C32.891 55.4655 32.9188 55.4655 32.9521 55.4655C33.0299 55.4655 33.1021 55.4712 33.1798 55.4712C33.2742 55.4712 33.3686 55.4712 33.463 55.4712C38.2114 55.4712 42.3045 52.5537 44.1872 48.3427C44.1928 48.3199 44.2039 48.3028 44.2094 48.28C44.3705 47.864 44.5149 47.4367 44.6426 47.0093C44.7426 46.6845 44.8314 46.3597 44.9147 46.0292C45.0202 45.6132 45.1091 45.1916 45.1869 44.7642C45.2591 44.371 45.3201 43.9779 45.3646 43.579C45.5256 42.2456 45.5534 40.8723 45.4368 39.482L45.4257 39.4934ZM43.6707 42.0234C43.4708 43.9323 42.8765 45.8013 41.9268 47.431C40.9772 49.055 39.6943 50.4567 38.1559 51.3912C38.6835 50.6448 39.1778 49.904 39.611 49.1404C40.0442 48.3769 40.4274 47.5962 40.7495 46.7985C41.3993 45.203 41.8102 43.5334 41.9879 41.8353C42.1601 40.1373 42.099 38.4164 41.7936 36.7126C41.6436 35.8579 41.427 35.0145 41.1604 34.1712C40.8939 33.3279 40.5662 32.4959 40.2052 31.6469C41.5159 32.9005 42.4878 34.5587 43.082 36.3536C43.6763 38.1543 43.8762 40.1145 43.6763 42.0234H43.6707Z" fill="url(#paint0_linear_115_3464)"/>
<g id="Clip path group_2">
<mask id="mask1_115_3464" style="mask-type:luminance" maskUnits="userSpaceOnUse" x="21" y="7" width="25" height="49">
<g id="clippath-1">
<path id="Vector_101" d="M45.4257 39.4934C45.3479 38.5304 45.198 37.556 44.9758 36.5759C44.2983 33.6014 42.9543 30.9802 41.4381 28.4502C41.4048 28.3932 41.3715 28.3419 41.3437 28.2906C41.1715 28.0114 40.9994 27.7265 40.8272 27.4473C40.0941 26.3305 39.2444 25.2991 38.2947 24.3817C38.4669 24.9287 38.6891 25.9544 38.5724 27.4359C38.3947 29.7551 37.4006 33.1854 34.1295 37.6528C33.3964 38.6557 32.7577 39.5788 32.1912 40.4279C31.8358 40.9635 31.5081 41.4763 31.2082 41.955C31.1694 42.0177 31.1305 42.0746 31.0916 42.1373C30.1864 43.522 29.3866 44.9636 28.7979 46.5022C28.7979 46.5079 28.7924 46.5136 28.7924 46.5193C28.1482 48.0635 28.1093 48.7416 28.1093 48.7416C28.0538 48.6675 28.0038 48.5877 27.9538 48.5136C27.1707 47.2828 26.8819 45.7101 27.1707 44.2628V44.24C27.2152 44.0519 27.2596 43.8696 27.3096 43.6815C27.354 43.4821 27.4262 43.2827 27.4873 43.0832L27.5761 42.7812L27.6872 42.4792L27.7983 42.1772L27.8538 42.0291C27.876 41.9778 27.8983 41.9265 27.9205 41.8809L28.1815 41.2826C28.2759 41.0832 28.3814 40.8837 28.4758 40.6843L28.6202 40.3823L28.7868 40.086L29.1201 39.4934C29.2422 39.2996 29.3644 39.1059 29.4866 38.9121L29.6699 38.6158C29.731 38.519 29.8032 38.4221 29.8698 38.3252L30.2697 37.7497L31.2305 36.365C31.8691 35.4134 32.4745 34.4333 33.0187 33.402C33.302 32.9005 33.5408 32.3649 33.7907 31.8406C33.9129 31.5785 34.0406 31.3164 34.1461 31.0429C34.1739 30.9802 34.1961 30.9175 34.2239 30.8548C34.3072 30.644 34.3905 30.4389 34.4738 30.228L34.6349 29.8235L34.7793 29.4075L35.0625 28.5756C35.1569 28.302 35.2291 28.0114 35.3124 27.7322L35.5457 26.8832C35.8456 25.6353 36.0677 24.3703 36.1955 23.0996C36.2121 22.9571 36.2232 22.8204 36.2343 22.6779C36.3121 21.7605 36.3454 20.8488 36.3287 19.9371L36.301 19.0709C36.2899 18.7803 36.2565 18.4954 36.2343 18.2105C36.2232 18.068 36.2121 17.9256 36.1955 17.7831L36.1399 17.3558L36.0844 16.9284L36.0566 16.7176L36.0177 16.5067C35.9678 16.2275 35.9233 15.9426 35.8678 15.6634L35.679 14.8314C35.5401 14.2844 35.3957 13.7374 35.218 13.2018C35.1347 12.9339 35.0347 12.6718 34.9403 12.4097C34.8515 12.1476 34.7404 11.8855 34.6404 11.629C34.4294 11.1105 34.1906 10.6148 33.9462 10.119C33.4353 9.14462 32.8688 8.19872 32.1746 7.37817L32.1579 7.38957C32.8521 9.43523 33.2076 11.5322 33.3464 13.6006C33.4131 14.632 33.4242 15.6577 33.3575 16.672C33.2909 17.6863 33.1854 18.6891 33.0021 19.6692C32.9299 20.0453 32.8521 20.4157 32.7633 20.7861C32.6244 21.3844 32.4634 21.9713 32.2634 22.5468C32.1746 22.8431 32.0635 23.1395 31.9524 23.4358C31.8913 23.601 31.8247 23.7663 31.7636 23.9315C31.6859 24.1594 31.5748 24.3817 31.4804 24.6039L31.1916 25.2763L30.8695 25.9316C30.7584 26.1481 30.664 26.3703 30.5418 26.5812L30.1975 27.2194L30.0253 27.5385L29.8365 27.8462C29.5755 28.2565 29.3533 28.6781 29.0756 29.077C28.8091 29.4759 28.5591 29.8862 28.2648 30.2736L27.8427 30.8605C27.7705 30.9574 27.7094 31.06 27.6317 31.1512L27.4095 31.4361L26.9652 32.0059L26.7431 32.2908C26.6653 32.3877 26.5876 32.4731 26.5098 32.57L26.0378 33.1227L25.8045 33.402L25.5546 33.7097L24.9937 34.3934C24.8993 34.5074 24.8049 34.6214 24.716 34.7353L24.4494 35.0943L23.9163 35.818L23.4164 36.5816C23.4164 36.5816 23.4109 36.5873 23.3998 36.6044C23.3998 36.6044 23.3942 36.6101 23.3942 36.6157L23.1665 36.9633L22.9333 37.3622C22.8 37.5901 22.6667 37.8181 22.539 38.0517C21.306 40.4621 19.5844 45.4708 23.2609 50.1604C24.3439 51.4824 25.6268 52.6221 27.0596 53.5338C27.0652 53.5338 27.0763 53.5452 27.0819 53.5452C27.7428 53.9839 28.4425 54.36 29.1812 54.6563C29.2645 54.6905 29.3478 54.7247 29.4311 54.7532C29.5088 54.7817 29.581 54.8102 29.6532 54.833C29.6699 54.8387 29.681 54.8444 29.6976 54.8501C29.7643 54.8729 29.8309 54.8956 29.9031 54.9184C29.9365 54.9298 29.9642 54.9412 29.9975 54.9469C30.0531 54.964 30.1142 54.9868 30.1697 55.0039C30.2197 55.021 30.2752 55.0381 30.3252 55.0495C30.3696 55.0609 30.4141 55.0723 30.4585 55.0837C30.4641 55.0837 30.4696 55.0837 30.4807 55.0894C30.5251 55.1008 30.564 55.1122 30.6085 55.1236C30.6806 55.1407 30.7473 55.1578 30.8195 55.1749C30.9306 55.2034 31.0416 55.2261 31.1583 55.2489C31.2027 55.2603 31.2527 55.2717 31.2971 55.2774C31.4637 55.3116 31.6359 55.3401 31.808 55.3629C31.9025 55.3743 31.9969 55.3914 32.0968 55.4028C32.269 55.4256 32.4412 55.4427 32.6189 55.4541C32.7022 55.4598 32.7799 55.4655 32.8632 55.4655C32.891 55.4655 32.9188 55.4655 32.9521 55.4655C33.0299 55.4655 33.1021 55.4712 33.1798 55.4712C33.2742 55.4712 33.3686 55.4712 33.463 55.4712C38.2114 55.4712 42.3045 52.5537 44.1872 48.3427C44.1928 48.3199 44.2039 48.3028 44.2094 48.28C44.3705 47.864 44.5149 47.4367 44.6426 47.0093C44.7426 46.6845 44.8314 46.3597 44.9147 46.0292C45.0202 45.6132 45.1091 45.1916 45.1869 44.7642C45.2591 44.371 45.3201 43.9779 45.3646 43.579C45.5256 42.2456 45.5534 40.8723 45.4368 39.482L45.4257 39.4934ZM43.6707 42.0234C43.4708 43.9323 42.8765 45.8013 41.9268 47.431C40.9772 49.055 39.6943 50.4567 38.1559 51.3912C38.6835 50.6448 39.1778 49.904 39.611 49.1404C40.0442 48.3769 40.4274 47.5962 40.7495 46.7985C41.3993 45.203 41.8102 43.5334 41.9879 41.8353C42.1601 40.1373 42.099 38.4164 41.7936 36.7126C41.6436 35.8579 41.427 35.0145 41.1604 34.1712C40.8939 33.3279 40.5662 32.4959 40.2052 31.6469C41.5159 32.9005 42.4878 34.5587 43.082 36.3536C43.6763 38.1543 43.8762 40.1145 43.6763 42.0234H43.6707Z" fill="white"/>
</g>
</mask>
<g mask="url(#mask1_115_3464)">
<g id="Group_4">
<path id="Vector_102" d="M38.1558 51.3684L38.5723 51.3912H38.1558V51.3684Z" fill="url(#paint1_linear_115_3464)"/>
<path id="Vector_103" d="M38.1558 50.8271L43.454 51.1576L43.4429 51.3912H38.5723L38.1558 51.3684V50.8271Z" fill="url(#paint2_linear_115_3464)"/>
<path id="Vector_104" d="M38.1558 50.2858L43.4873 50.622L43.454 51.1576L38.1558 50.8271V50.2858Z" fill="url(#paint3_linear_115_3464)"/>
<path id="Vector_105" d="M38.1558 49.7444L43.5206 50.0806L43.4873 50.622L38.1558 50.2858V49.7444Z" fill="url(#paint4_linear_115_3464)"/>
<path id="Vector_106" d="M38.1558 49.2031L43.5484 49.545L43.5206 50.0806L38.1558 49.7445V49.2031Z" fill="url(#paint5_linear_115_3464)"/>
<path id="Vector_107" d="M38.1558 48.6618L43.5817 49.0037L43.5484 49.545L38.1558 49.2031V48.6618Z" fill="url(#paint6_linear_115_3464)"/>
<path id="Vector_108" d="M38.1558 48.1205L43.6095 48.4681L43.5817 49.0037L38.1558 48.6618V48.1205Z" fill="url(#paint7_linear_115_3464)"/>
<path id="Vector_109" d="M38.1558 47.5791L43.6428 47.9267L43.6095 48.468L38.1558 48.1204V47.5791Z" fill="url(#paint8_linear_115_3464)"/>
<path id="Vector_110" d="M38.1558 47.4822L38.1835 47.0435L43.6761 47.391L43.6428 47.9267L38.1558 47.5791V47.4822Z" fill="url(#paint9_linear_115_3464)"/>
<path id="Vector_111" d="M38.1836 47.0435L38.2114 46.5021L43.704 46.8497L43.6762 47.3911L38.1836 47.0435Z" fill="url(#paint10_linear_115_3464)"/>
<path id="Vector_112" d="M38.2114 46.5022L38.2447 45.9666L43.7373 46.3141L43.704 46.8498L38.2114 46.5022Z" fill="url(#paint11_linear_115_3464)"/>
<path id="Vector_113" d="M38.2446 45.9665L38.2724 45.4252L43.765 45.7728L43.7372 46.3141L38.2446 45.9665Z" fill="url(#paint12_linear_115_3464)"/>
<path id="Vector_114" d="M38.2725 45.4252L38.3058 44.8895L43.7984 45.2314L43.7651 45.7727L38.2725 45.4252Z" fill="url(#paint13_linear_115_3464)"/>
<path id="Vector_115" d="M38.3057 44.8895L38.339 44.3482L43.8316 44.6958L43.7983 45.2314L38.3057 44.8895Z" fill="url(#paint14_linear_115_3464)"/>
<path id="Vector_116" d="M38.3389 44.3482L38.3666 43.8126L43.8592 44.1545L43.8315 44.6958L38.3389 44.3482Z" fill="url(#paint15_linear_115_3464)"/>
<path id="Vector_117" d="M38.3667 43.8126L38.4 43.2712L43.8704 43.6188V44.0234L43.8593 44.1545L38.3667 43.8126Z" fill="url(#paint16_linear_115_3464)"/>
<path id="Vector_118" d="M38.3999 43.2712L38.4277 42.7356L43.8703 43.0775V43.6188L38.3999 43.2712Z" fill="url(#paint17_linear_115_3464)"/>
<path id="Vector_119" d="M38.4277 42.7356L38.4611 42.1943L43.8703 42.5362V43.0775L38.4277 42.7356Z" fill="url(#paint18_linear_115_3464)"/>
<path id="Vector_120" d="M38.4609 42.1943L38.4943 41.6587L43.8702 41.9949V42.5362L38.4609 42.1943Z" fill="url(#paint19_linear_115_3464)"/>
<path id="Vector_121" d="M38.4946 41.6586L38.5224 41.1173L43.8706 41.4535V41.9948L38.4946 41.6586Z" fill="url(#paint20_linear_115_3464)"/>
<path id="Vector_122" d="M38.5225 41.1174L38.5558 40.5817L43.8707 40.9122V41.4536L38.5225 41.1174Z" fill="url(#paint21_linear_115_3464)"/>
<path id="Vector_123" d="M38.5557 40.5817L38.589 40.0403L43.8705 40.3708V40.9122L38.5557 40.5817Z" fill="url(#paint22_linear_115_3464)"/>
<path id="Vector_124" d="M38.5889 40.0404L38.6166 39.5048L43.8704 39.8353V40.3709L38.5889 40.0404Z" fill="url(#paint23_linear_115_3464)"/>
<path id="Vector_125" d="M38.6167 39.5047L38.65 38.9634L43.8705 39.2939V39.8352L38.6167 39.5047Z" fill="url(#paint24_linear_115_3464)"/>
<path id="Vector_126" d="M38.6499 38.9634L38.6777 38.4278L43.8704 38.7526V39.2939L38.6499 38.9634Z" fill="url(#paint25_linear_115_3464)"/>
<path id="Vector_127" d="M38.6777 38.4278L38.7111 37.8865L43.8704 38.2113V38.7526L38.6777 38.4278Z" fill="url(#paint26_linear_115_3464)"/>
<path id="Vector_128" d="M38.7109 37.8865L38.7443 37.3508L43.8703 37.6699V38.2113L38.7109 37.8865Z" fill="url(#paint27_linear_115_3464)"/>
<path id="Vector_129" d="M38.7441 37.3508L38.7719 36.8094L43.8702 37.1285V37.6699L38.7441 37.3508Z" fill="url(#paint28_linear_115_3464)"/>
<path id="Vector_130" d="M38.772 36.8095L38.8053 36.2681L43.8702 36.5872V37.1286L38.772 36.8095Z" fill="url(#paint29_linear_115_3464)"/>
<path id="Vector_131" d="M38.8057 36.2681L38.8334 35.7325L43.8706 36.0516V36.5872L38.8057 36.2681Z" fill="url(#paint30_linear_115_3464)"/>
<path id="Vector_132" d="M38.833 35.7325L38.8663 35.1912L43.8702 35.5103V36.0516L38.833 35.7325Z" fill="url(#paint31_linear_115_3464)"/>
<path id="Vector_133" d="M38.8667 35.1911L38.9 34.6555L43.8706 34.9689V35.5103L38.8667 35.1911Z" fill="url(#paint32_linear_115_3464)"/>
<path id="Vector_134" d="M38.8999 34.6555L38.9277 34.1142L43.8704 34.4276V34.9689L38.8999 34.6555Z" fill="url(#paint33_linear_115_3464)"/>
<path id="Vector_135" d="M38.9277 34.1142L38.9611 33.5786L43.8705 33.8863V34.4276L38.9277 34.1142Z" fill="url(#paint34_linear_115_3464)"/>
<path id="Vector_136" d="M38.9609 33.5786L38.9943 33.0372L43.8704 33.3449V33.8863L38.9609 33.5786Z" fill="url(#paint35_linear_115_3464)"/>
<path id="Vector_137" d="M38.9941 33.0372L39.0219 32.5016L43.8703 32.8036V33.3449L38.9941 33.0372Z" fill="url(#paint36_linear_115_3464)"/>
<path id="Vector_138" d="M39.022 32.5016L39.0553 31.9603L43.8703 32.2623V32.8036L39.022 32.5016Z" fill="url(#paint37_linear_115_3464)"/>
<path id="Vector_139" d="M39.0552 31.9603L39.0718 31.6469H42.6206L43.8702 31.7266V32.2623L39.0552 31.9603Z" fill="url(#paint38_linear_115_3464)"/>
<path id="Vector_140" d="M43.8702 31.7266L42.6206 31.6469H43.8702V31.7266Z" fill="url(#paint39_linear_115_3464)"/>
<path id="Vector_141" d="M19.5786 55.0609L26.2208 55.4826H19.5786V55.0609Z" fill="url(#paint40_linear_115_3464)"/>
<path id="Vector_142" d="M19.5786 54.5195L34.8124 55.4825H26.2208L19.5786 55.0609V54.5195Z" fill="url(#paint41_linear_115_3464)"/>
<path id="Vector_143" d="M19.5786 53.9782L43.4039 55.4825H34.8124L19.5786 54.5195V53.9782Z" fill="url(#paint42_linear_115_3464)"/>
<path id="Vector_144" d="M19.5786 53.4426L44.9978 55.0381L44.97 55.4825H43.4039L19.5786 53.9782V53.4426Z" fill="url(#paint43_linear_115_3464)"/>
<path id="Vector_145" d="M19.5786 52.9012L45.0311 54.5024L44.9978 55.0381L19.5786 53.4426V52.9012Z" fill="url(#paint44_linear_115_3464)"/>
<path id="Vector_146" d="M19.5786 52.3599L45.0589 53.9611L45.0311 54.5025L19.5786 52.9013V52.3599Z" fill="url(#paint45_linear_115_3464)"/>
<path id="Vector_147" d="M19.5786 51.8186L45.0922 53.4255L45.0589 53.9611L19.5786 52.3599V51.8186Z" fill="url(#paint46_linear_115_3464)"/>
<path id="Vector_148" d="M19.5786 51.2773L45.12 52.8842L45.0922 53.4255L19.5786 51.8186V51.2773Z" fill="url(#paint47_linear_115_3464)"/>
<path id="Vector_149" d="M19.5786 50.736L45.1533 52.3486L45.12 52.8842L19.5786 51.2773V50.736Z" fill="url(#paint48_linear_115_3464)"/>
<path id="Vector_150" d="M19.5786 50.1946L45.1866 51.8072L45.1533 52.3485L19.5786 50.7359V50.1946Z" fill="url(#paint49_linear_115_3464)"/>
<path id="Vector_151" d="M19.5786 49.659L45.2144 51.2716L45.1866 51.8072L19.5786 50.1946V49.659Z" fill="url(#paint50_linear_115_3464)"/>
<path id="Vector_152" d="M19.5786 49.1176L45.2477 50.7302L45.2144 51.2715L19.5786 49.6589V49.1176Z" fill="url(#paint51_linear_115_3464)"/>
<path id="Vector_153" d="M19.5786 48.5763L45.2755 50.1946L45.2477 50.7302L19.5786 49.1176V48.5763Z" fill="url(#paint52_linear_115_3464)"/>
<path id="Vector_154" d="M19.5786 48.035L45.3088 49.6533L45.2755 50.1946L19.5786 48.5763V48.035Z" fill="url(#paint53_linear_115_3464)"/>
<path id="Vector_155" d="M19.5786 47.4937L45.3421 49.1176L45.3088 49.6533L19.5786 48.035V47.4937Z" fill="url(#paint54_linear_115_3464)"/>
<path id="Vector_156" d="M19.5786 46.9523L45.3699 48.5763L45.3421 49.1177L19.5786 47.4937V46.9523Z" fill="url(#paint55_linear_115_3464)"/>
<path id="Vector_157" d="M19.5786 46.411L45.4032 48.035L45.3699 48.5763L19.5786 46.9523V46.411Z" fill="url(#paint56_linear_115_3464)"/>
<path id="Vector_158" d="M19.5786 45.8754L45.4365 47.4994L45.4032 48.035L19.5786 46.411V45.8754Z" fill="url(#paint57_linear_115_3464)"/>
<path id="Vector_159" d="M19.5786 45.334L45.4643 46.958L45.4366 47.4994L19.5786 45.8754V45.334Z" fill="url(#paint58_linear_115_3464)"/>
<path id="Vector_160" d="M19.5786 44.7927L45.4976 46.4224L45.4643 46.958L19.5786 45.334V44.7927Z" fill="url(#paint59_linear_115_3464)"/>
<path id="Vector_161" d="M19.5786 44.2513L45.5254 45.881L45.4976 46.4224L19.5786 44.7927V44.2513Z" fill="url(#paint60_linear_115_3464)"/>
<path id="Vector_162" d="M19.5786 43.71L45.5421 45.3454V45.6645L45.5254 45.881L19.5786 44.2514V43.71Z" fill="url(#paint61_linear_115_3464)"/>
<path id="Vector_163" d="M19.5786 43.1687L45.5421 44.8041V45.3454L19.5786 43.71V43.1687Z" fill="url(#paint62_linear_115_3464)"/>
<path id="Vector_164" d="M19.5786 42.6274L45.5421 44.2628V44.8041L19.5786 43.1687V42.6274Z" fill="url(#paint63_linear_115_3464)"/>
<path id="Vector_165" d="M19.5786 42.086L45.5421 43.7214V44.2627L19.5786 42.6273V42.086Z" fill="url(#paint64_linear_115_3464)"/>
<path id="Vector_166" d="M19.5786 41.5504L45.5421 43.1801V43.7214L19.5786 42.086V41.5504Z" fill="url(#paint65_linear_115_3464)"/>
<path id="Vector_167" d="M19.5786 41.5504L19.6119 41.0091L45.5421 42.6388V43.1801L19.5786 41.5504Z" fill="url(#paint66_linear_115_3464)"/>
<path id="Vector_168" d="M19.6118 41.0091L19.6396 40.4734L45.542 42.1031V42.6388L19.6118 41.0091Z" fill="url(#paint67_linear_115_3464)"/>
<path id="Vector_169" d="M19.6396 40.4735L19.673 39.9321L45.542 41.5618V42.1032L19.6396 40.4735Z" fill="url(#paint68_linear_115_3464)"/>
<path id="Vector_170" d="M19.6729 39.9321L19.7062 39.3965L45.5419 41.0205V41.5618L19.6729 39.9321Z" fill="url(#paint69_linear_115_3464)"/>
<path id="Vector_171" d="M19.7065 39.3965L19.7343 38.8552L45.5423 40.4792V41.0205L19.7065 39.3965Z" fill="url(#paint70_linear_115_3464)"/>
<path id="Vector_172" d="M19.7339 38.8551L19.7672 38.3138L45.5418 39.9378V40.4791L19.7339 38.8551Z" fill="url(#paint71_linear_115_3464)"/>
<path id="Vector_173" d="M19.7676 38.3138L19.7953 37.7782L45.5422 39.3965V39.9378L19.7676 38.3138Z" fill="url(#paint72_linear_115_3464)"/>
<path id="Vector_174" d="M19.7954 37.7781L19.8287 37.2368L45.5423 38.8551V39.3964L19.7954 37.7781Z" fill="url(#paint73_linear_115_3464)"/>
<path id="Vector_175" d="M19.8286 37.2369L19.8619 36.7012L45.5422 38.3138V38.8552L19.8286 37.2369Z" fill="url(#paint74_linear_115_3464)"/>
<path id="Vector_176" d="M19.8618 36.7012L19.8896 36.1599L45.542 37.7781V38.3138L19.8618 36.7012Z" fill="url(#paint75_linear_115_3464)"/>
<path id="Vector_177" d="M19.8896 36.1599L19.923 35.6243L45.5421 37.2369V37.7782L19.8896 36.1599Z" fill="url(#paint76_linear_115_3464)"/>
<path id="Vector_178" d="M19.9229 35.6242L19.9562 35.0829L45.542 36.6955V37.2368L19.9229 35.6242Z" fill="url(#paint77_linear_115_3464)"/>
<path id="Vector_179" d="M19.9561 35.0829L19.9838 34.5473L45.5419 36.1542V36.6955L19.9561 35.0829Z" fill="url(#paint78_linear_115_3464)"/>
<path id="Vector_180" d="M19.9839 34.5472L20.0172 34.0059L45.5419 35.6128V36.1542L19.9839 34.5472Z" fill="url(#paint79_linear_115_3464)"/>
<path id="Vector_181" d="M20.0176 34.006L20.0453 33.4703L45.5423 35.0715V35.6129L20.0176 34.006Z" fill="url(#paint80_linear_115_3464)"/>
<path id="Vector_182" d="M20.0449 33.4703L20.0782 32.929L45.5419 34.5302V35.0715L20.0449 33.4703Z" fill="url(#paint81_linear_115_3464)"/>
<path id="Vector_183" d="M20.0786 32.929L20.1119 32.3934L45.5422 33.9946V34.5302L20.0786 32.929Z" fill="url(#paint82_linear_115_3464)"/>
<path id="Vector_184" d="M20.1118 32.3934L20.1396 31.8521L45.5421 33.4533V33.9946L20.1118 32.3934Z" fill="url(#paint83_linear_115_3464)"/>
<path id="Vector_185" d="M20.1396 31.852L20.173 31.3164L45.5422 32.9119V33.4532L20.1396 31.852Z" fill="url(#paint84_linear_115_3464)"/>
<path id="Vector_186" d="M20.1729 31.3164L20.2006 30.7751L45.5421 32.3706V32.9119L20.1729 31.3164Z" fill="url(#paint85_linear_115_3464)"/>
<path id="Vector_187" d="M20.2007 30.7751L20.234 30.2394L45.5421 31.8292V32.3706L20.2007 30.7751Z" fill="url(#paint86_linear_115_3464)"/>
<path id="Vector_188" d="M20.2339 30.2395L20.2672 29.6981L45.542 31.2879V31.8293L20.2339 30.2395Z" fill="url(#paint87_linear_115_3464)"/>
<path id="Vector_189" d="M20.2671 29.6981L20.2949 29.1625L45.5419 30.7466V31.2879L20.2671 29.6981Z" fill="url(#paint88_linear_115_3464)"/>
<path id="Vector_190" d="M20.2949 29.1625L20.3282 28.6212L45.542 30.2053V30.7466L20.2949 29.1625Z" fill="url(#paint89_linear_115_3464)"/>
<path id="Vector_191" d="M20.3281 28.6211L20.3614 28.0855L45.5418 29.6696V30.2052L20.3281 28.6211Z" fill="url(#paint90_linear_115_3464)"/>
<path id="Vector_192" d="M20.3618 28.0855L20.3896 27.5442L45.5422 29.1283V29.6696L20.3618 28.0855Z" fill="url(#paint91_linear_115_3464)"/>
<path id="Vector_193" d="M20.3896 27.5442L20.423 27.0085L45.5423 28.587V29.1283L20.3896 27.5442Z" fill="url(#paint92_linear_115_3464)"/>
<path id="Vector_194" d="M20.4229 27.0086L20.4506 26.4672L45.5421 28.0456V28.587L20.4229 27.0086Z" fill="url(#paint93_linear_115_3464)"/>
<path id="Vector_195" d="M20.4507 26.4672L20.484 25.9316L45.5422 27.5043V28.0456L20.4507 26.4672Z" fill="url(#paint94_linear_115_3464)"/>
<path id="Vector_196" d="M20.4839 25.9316L20.5172 25.3903L45.5421 26.963V27.5043L20.4839 25.9316Z" fill="url(#paint95_linear_115_3464)"/>
<path id="Vector_197" d="M20.5171 25.3902L21.5556 7.36676H45.542V26.9629L20.5171 25.3902Z" fill="url(#paint96_linear_115_3464)"/>
</g>
</g>
</g>
</g>
<g id="Group_5">
<path id="Vector_198" d="M53.5674 49.5302V29.1248H67.646V32.8344H57.2606V38.4072H67.085V41.9686H57.2606V49.5302H53.5674Z" fill="#292929"/>
<path id="Vector_199" d="M73.4441 35.1421V42.6752C73.4441 44.8633 74.5938 46.5272 76.7763 46.5272C78.9589 46.5272 80.3029 44.6866 80.3029 42.4985V35.1421H83.6907V49.5586H80.6417L80.4196 47.6041C78.9923 49.0629 77.676 49.7638 75.7434 49.7638C72.4389 49.7638 70.0342 47.1654 70.0342 42.698V35.1364H73.4497L73.4441 35.1421Z" fill="#292929"/>
<path id="Vector_200" d="M89.6218 43.604C89.844 45.3819 91.3268 46.6697 93.7371 46.6697C94.9978 46.6697 96.6472 46.1739 97.4303 45.3249L99.6129 47.57C98.1578 49.1484 95.7808 49.9062 93.6815 49.9062C88.922 49.9062 86.0952 46.8406 86.0952 42.2307C86.0952 37.6209 88.9498 34.6977 93.4316 34.6977C97.9135 34.6977 100.935 37.6722 100.402 43.5983H89.6274L89.6218 43.604ZM97.1248 40.658C96.9027 38.789 95.5032 37.8545 93.5427 37.8545C91.6933 37.8545 90.1827 38.789 89.6773 40.658H97.1248Z" fill="#292929"/>
<path id="Vector_201" d="M106.416 29.1248V49.5302H103.028V29.1248H106.416Z" fill="#292929"/>
<path id="Vector_202" d="M132.563 39.1366C132.646 44.3049 129.625 49.5301 122.766 49.5301H115.069V29.0963H122.766C129.486 29.0963 132.48 34.088 132.563 39.1366ZM118.734 45.8206H122.766C127.215 45.8206 128.981 42.4359 128.898 39.1081C128.814 35.9285 127.02 32.7432 122.766 32.7432H118.734V45.8206Z" fill="#292929"/>
<path id="Vector_203" d="M138.244 43.604C138.467 45.3819 139.949 46.6697 142.36 46.6697C143.62 46.6697 145.27 46.1739 146.053 45.3249L148.235 47.57C146.78 49.1484 144.403 49.9062 142.304 49.9062C137.545 49.9062 134.718 46.8406 134.718 42.2307C134.718 37.6209 137.572 34.6977 142.054 34.6977C146.536 34.6977 149.557 37.6722 149.024 43.5983H138.25L138.244 43.604ZM145.747 40.658C145.525 38.789 144.126 37.8545 142.165 37.8545C140.316 37.8545 138.805 38.789 138.3 40.658H145.747Z" fill="#292929"/>
<path id="Vector_204" d="M155.039 29.1248V49.5302H151.651V29.1248H155.039Z" fill="#292929"/>
<path id="Vector_205" d="M161.759 31.085C161.759 33.86 157.727 33.86 157.727 31.085C157.727 28.31 161.759 28.31 161.759 31.085ZM158.038 35.0852V49.5358H161.453V35.0852H158.038Z" fill="#292929"/>
<path id="Vector_206" d="M178.83 35.108L172.955 49.5872H169.261L163.358 35.108H167.079L168.984 39.866L171.111 45.9346L173.21 39.923L175.115 35.108H178.836H178.83Z" fill="#292929"/>
<path id="Vector_207" d="M183.396 43.604C183.618 45.3819 185.101 46.6697 187.511 46.6697C188.772 46.6697 190.421 46.1739 191.204 45.3249L193.387 47.57C191.932 49.1484 189.555 49.9062 187.455 49.9062C182.696 49.9062 179.869 46.8406 179.869 42.2307C179.869 37.6209 182.724 34.6977 187.206 34.6977C191.687 34.6977 194.709 37.6722 194.175 43.5983H183.401L183.396 43.604ZM190.899 40.658C190.677 38.789 189.277 37.8545 187.317 37.8545C185.467 37.8545 183.957 38.789 183.451 40.658H190.899Z" fill="#292929"/>
<path id="Vector_208" d="M199.968 35.1422L200.218 36.806C201.284 35.0282 202.711 34.7604 204.105 34.7604C205.499 34.7604 206.904 35.3416 207.66 36.1336L206.121 39.2278C205.422 38.6124 204.777 38.2933 203.661 38.2933C201.867 38.2933 200.218 39.2848 200.218 41.9401V49.5302H196.802V35.1422H199.968Z" fill="#292929"/>
<path id="Vector_209" d="M223.732 35.1422L215.307 55.5475H211.558L214.135 49.3022L208.621 35.1478H212.597L214.696 41.3646L216.013 45.4217L217.44 41.4501L219.961 35.1478H223.738L223.732 35.1422Z" fill="#292929"/>
</g>
</g>
</g>
<defs>
<linearGradient id="paint0_linear_115_3464" x1="20.0342" y1="13.367" x2="47.2803" y2="64.758" gradientUnits="userSpaceOnUse">
<stop stop-color="#058DF3"/>
<stop offset="1" stop-color="#122C91"/>
</linearGradient>
<linearGradient id="paint1_linear_115_3464" x1="19.6342" y1="14.2038" x2="46.5228" y2="64.9192" gradientUnits="userSpaceOnUse">
<stop stop-color="#058DF3"/>
<stop offset="1" stop-color="#122C91"/>
</linearGradient>
<linearGradient id="paint2_linear_115_3464" x1="21.5891" y1="13.1106" x2="48.5112" y2="63.8758" gradientUnits="userSpaceOnUse">
<stop stop-color="#058DF3"/>
<stop offset="1" stop-color="#122C91"/>
</linearGradient>
<linearGradient id="paint3_linear_115_3464" x1="21.7946" y1="12.9452" x2="48.7402" y2="63.7671" gradientUnits="userSpaceOnUse">
<stop stop-color="#058DF3"/>
<stop offset="1" stop-color="#122C91"/>
</linearGradient>
<linearGradient id="paint4_linear_115_3464" x1="22.0168" y1="12.8199" x2="48.9678" y2="63.6416" gradientUnits="userSpaceOnUse">
<stop stop-color="#058DF3"/>
<stop offset="1" stop-color="#122C91"/>
</linearGradient>
<linearGradient id="paint5_linear_115_3464" x1="22.2445" y1="12.6948" x2="49.1897" y2="63.5164" gradientUnits="userSpaceOnUse">
<stop stop-color="#058DF3"/>
<stop offset="1" stop-color="#122C91"/>
</linearGradient>
<linearGradient id="paint6_linear_115_3464" x1="22.4666" y1="12.5692" x2="49.4121" y2="63.391" gradientUnits="userSpaceOnUse">
<stop stop-color="#058DF3"/>
<stop offset="1" stop-color="#122C91"/>
</linearGradient>
<linearGradient id="paint7_linear_115_3464" x1="22.6943" y1="12.444" x2="49.6396" y2="63.2657" gradientUnits="userSpaceOnUse">
<stop stop-color="#058DF3"/>
<stop offset="1" stop-color="#122C91"/>
</linearGradient>
<linearGradient id="paint8_linear_115_3464" x1="22.9165" y1="12.3184" x2="49.862" y2="63.1403" gradientUnits="userSpaceOnUse">
<stop stop-color="#058DF3"/>
<stop offset="1" stop-color="#122C91"/>
</linearGradient>
<linearGradient id="paint9_linear_115_3464" x1="23.1386" y1="12.1932" x2="50.0839" y2="63.0149" gradientUnits="userSpaceOnUse">
<stop stop-color="#058DF3"/>
<stop offset="1" stop-color="#122C91"/>
</linearGradient>
<linearGradient id="paint10_linear_115_3464" x1="23.3719" y1="12.062" x2="50.3231" y2="62.8837" gradientUnits="userSpaceOnUse">
<stop stop-color="#058DF3"/>
<stop offset="1" stop-color="#122C91"/>
</linearGradient>
<linearGradient id="paint11_linear_115_3464" x1="23.6108" y1="11.9312" x2="50.5561" y2="62.7529" gradientUnits="userSpaceOnUse">
<stop stop-color="#058DF3"/>
<stop offset="1" stop-color="#122C91"/>
</linearGradient>
<linearGradient id="paint12_linear_115_3464" x1="23.8439" y1="11.7998" x2="50.7951" y2="62.6215" gradientUnits="userSpaceOnUse">
<stop stop-color="#058DF3"/>
<stop offset="1" stop-color="#122C91"/>
</linearGradient>
<linearGradient id="paint13_linear_115_3464" x1="24.0828" y1="11.669" x2="51.0281" y2="62.4907" gradientUnits="userSpaceOnUse">
<stop stop-color="#058DF3"/>
<stop offset="1" stop-color="#122C91"/>
</linearGradient>
<linearGradient id="paint14_linear_115_3464" x1="24.3159" y1="11.5378" x2="51.267" y2="62.3537" gradientUnits="userSpaceOnUse">
<stop stop-color="#058DF3"/>
<stop offset="1" stop-color="#122C91"/>
</linearGradient>
<linearGradient id="paint15_linear_115_3464" x1="24.5546" y1="11.4067" x2="51.5" y2="62.2228" gradientUnits="userSpaceOnUse">
<stop stop-color="#058DF3"/>
<stop offset="1" stop-color="#122C91"/>
</linearGradient>
<linearGradient id="paint16_linear_115_3464" x1="24.7824" y1="11.2757" x2="51.7279" y2="62.0975" gradientUnits="userSpaceOnUse">
<stop stop-color="#058DF3"/>
<stop offset="1" stop-color="#122C91"/>
</linearGradient>
<linearGradient id="paint17_linear_115_3464" x1="25.0044" y1="11.1503" x2="51.9499" y2="61.9721" gradientUnits="userSpaceOnUse">
<stop stop-color="#058DF3"/>
<stop offset="1" stop-color="#122C91"/>
</linearGradient>
<linearGradient id="paint18_linear_115_3464" x1="25.2266" y1="11.0249" x2="52.1778" y2="61.8466" gradientUnits="userSpaceOnUse">
<stop stop-color="#058DF3"/>
<stop offset="1" stop-color="#122C91"/>
</linearGradient>
<linearGradient id="paint19_linear_115_3464" x1="25.4542" y1="10.8997" x2="52.3996" y2="61.7215" gradientUnits="userSpaceOnUse">
<stop stop-color="#058DF3"/>
<stop offset="1" stop-color="#122C91"/>
</linearGradient>
<linearGradient id="paint20_linear_115_3464" x1="25.6767" y1="10.7743" x2="52.6221" y2="61.5961" gradientUnits="userSpaceOnUse">
<stop stop-color="#058DF3"/>
<stop offset="1" stop-color="#122C91"/>
</linearGradient>
<linearGradient id="paint21_linear_115_3464" x1="25.899" y1="10.649" x2="52.85" y2="61.4706" gradientUnits="userSpaceOnUse">
<stop stop-color="#058DF3"/>
<stop offset="1" stop-color="#122C91"/>
</linearGradient>
<linearGradient id="paint22_linear_115_3464" x1="26.1265" y1="10.5236" x2="53.0719" y2="61.3453" gradientUnits="userSpaceOnUse">
<stop stop-color="#058DF3"/>
<stop offset="1" stop-color="#122C91"/>
</linearGradient>
<linearGradient id="paint23_linear_115_3464" x1="26.3486" y1="10.3982" x2="53.2997" y2="61.2198" gradientUnits="userSpaceOnUse">
<stop stop-color="#058DF3"/>
<stop offset="1" stop-color="#122C91"/>
</linearGradient>
<linearGradient id="paint24_linear_115_3464" x1="26.5708" y1="10.2728" x2="53.5218" y2="61.0944" gradientUnits="userSpaceOnUse">
<stop stop-color="#058DF3"/>
<stop offset="1" stop-color="#122C91"/>
</linearGradient>
<linearGradient id="paint25_linear_115_3464" x1="26.7984" y1="10.1476" x2="53.7436" y2="60.9693" gradientUnits="userSpaceOnUse">
<stop stop-color="#058DF3"/>
<stop offset="1" stop-color="#122C91"/>
</linearGradient>
<linearGradient id="paint26_linear_115_3464" x1="27.0206" y1="10.0222" x2="53.9715" y2="60.8438" gradientUnits="userSpaceOnUse">
<stop stop-color="#058DF3"/>
<stop offset="1" stop-color="#122C91"/>
</linearGradient>
<linearGradient id="paint27_linear_115_3464" x1="27.2481" y1="9.89676" x2="54.1936" y2="60.7186" gradientUnits="userSpaceOnUse">
<stop stop-color="#058DF3"/>
<stop offset="1" stop-color="#122C91"/>
</linearGradient>
<linearGradient id="paint28_linear_115_3464" x1="27.4702" y1="9.77135" x2="54.4213" y2="60.593" gradientUnits="userSpaceOnUse">
<stop stop-color="#058DF3"/>
<stop offset="1" stop-color="#122C91"/>
</linearGradient>
<linearGradient id="paint29_linear_115_3464" x1="27.6924" y1="9.6403" x2="54.6436" y2="60.4677" gradientUnits="userSpaceOnUse">
<stop stop-color="#058DF3"/>
<stop offset="1" stop-color="#122C91"/>
</linearGradient>
<linearGradient id="paint30_linear_115_3464" x1="27.9205" y1="9.51496" x2="54.8659" y2="60.3425" gradientUnits="userSpaceOnUse">
<stop stop-color="#058DF3"/>
<stop offset="1" stop-color="#122C91"/>
</linearGradient>
<linearGradient id="paint31_linear_115_3464" x1="28.1422" y1="9.38958" x2="55.0933" y2="60.217" gradientUnits="userSpaceOnUse">
<stop stop-color="#058DF3"/>
<stop offset="1" stop-color="#122C91"/>
</linearGradient>
<linearGradient id="paint32_linear_115_3464" x1="28.3647" y1="9.26424" x2="55.3158" y2="60.0916" gradientUnits="userSpaceOnUse">
<stop stop-color="#058DF3"/>
<stop offset="1" stop-color="#122C91"/>
</linearGradient>
<linearGradient id="paint33_linear_115_3464" x1="28.5923" y1="9.13889" x2="55.5434" y2="59.972" gradientUnits="userSpaceOnUse">
<stop stop-color="#058DF3"/>
<stop offset="1" stop-color="#122C91"/>
</linearGradient>
<linearGradient id="paint34_linear_115_3464" x1="28.8145" y1="9.01361" x2="55.7656" y2="59.8466" gradientUnits="userSpaceOnUse">
<stop stop-color="#058DF3"/>
<stop offset="1" stop-color="#122C91"/>
</linearGradient>
<linearGradient id="paint35_linear_115_3464" x1="29.0365" y1="8.8882" x2="55.9876" y2="59.7212" gradientUnits="userSpaceOnUse">
<stop stop-color="#058DF3"/>
<stop offset="1" stop-color="#122C91"/>
</linearGradient>
<linearGradient id="paint36_linear_115_3464" x1="29.2641" y1="8.76274" x2="56.2153" y2="59.5959" gradientUnits="userSpaceOnUse">
<stop stop-color="#058DF3"/>
<stop offset="1" stop-color="#122C91"/>
</linearGradient>
<linearGradient id="paint37_linear_115_3464" x1="29.4863" y1="8.63745" x2="56.4375" y2="59.4705" gradientUnits="userSpaceOnUse">
<stop stop-color="#058DF3"/>
<stop offset="1" stop-color="#122C91"/>
</linearGradient>
<linearGradient id="paint38_linear_115_3464" x1="29.7194" y1="8.53482" x2="56.6475" y2="59.3228" gradientUnits="userSpaceOnUse">
<stop stop-color="#058DF3"/>
<stop offset="1" stop-color="#122C91"/>
</linearGradient>
<linearGradient id="paint39_linear_115_3464" x1="31.2245" y1="7.77075" x2="58.113" y2="58.4919" gradientUnits="userSpaceOnUse">
<stop stop-color="#058DF3"/>
<stop offset="1" stop-color="#122C91"/>
</linearGradient>
<linearGradient id="paint40_linear_115_3464" x1="5.83326" y1="21.5897" x2="32.7207" y2="72.3043" gradientUnits="userSpaceOnUse">
<stop stop-color="#058DF3"/>
<stop offset="1" stop-color="#122C91"/>
</linearGradient>
<linearGradient id="paint41_linear_115_3464" x1="9.30431" y1="19.7432" x2="36.1919" y2="70.458" gradientUnits="userSpaceOnUse">
<stop stop-color="#058DF3"/>
<stop offset="1" stop-color="#122C91"/>
</linearGradient>
<linearGradient id="paint42_linear_115_3464" x1="12.7976" y1="17.88" x2="39.6852" y2="68.6005" gradientUnits="userSpaceOnUse">
<stop stop-color="#058DF3"/>
<stop offset="1" stop-color="#122C91"/>
</linearGradient>
<linearGradient id="paint43_linear_115_3464" x1="13.6084" y1="17.4241" x2="40.5133" y2="68.1612" gradientUnits="userSpaceOnUse">
<stop stop-color="#058DF3"/>
<stop offset="1" stop-color="#122C91"/>
</linearGradient>
<linearGradient id="paint44_linear_115_3464" x1="13.8306" y1="17.2988" x2="40.7354" y2="68.0416" gradientUnits="userSpaceOnUse">
<stop stop-color="#058DF3"/>
<stop offset="1" stop-color="#122C91"/>
</linearGradient>
<linearGradient id="paint45_linear_115_3464" x1="14.0583" y1="17.1734" x2="40.9631" y2="67.9105" gradientUnits="userSpaceOnUse">
<stop stop-color="#058DF3"/>
<stop offset="1" stop-color="#122C91"/>
</linearGradient>
<linearGradient id="paint46_linear_115_3464" x1="14.2804" y1="17.048" x2="41.1852" y2="67.7852" gradientUnits="userSpaceOnUse">
<stop stop-color="#058DF3"/>
<stop offset="1" stop-color="#122C91"/>
</linearGradient>
<linearGradient id="paint47_linear_115_3464" x1="14.5025" y1="16.917" x2="41.4074" y2="67.6599" gradientUnits="userSpaceOnUse">
<stop stop-color="#058DF3"/>
<stop offset="1" stop-color="#122C91"/>
</linearGradient>
<linearGradient id="paint48_linear_115_3464" x1="14.7302" y1="16.7916" x2="41.6352" y2="67.5345" gradientUnits="userSpaceOnUse">
<stop stop-color="#058DF3"/>
<stop offset="1" stop-color="#122C91"/>
</linearGradient>
<linearGradient id="paint49_linear_115_3464" x1="14.9524" y1="16.6663" x2="41.8573" y2="67.4091" gradientUnits="userSpaceOnUse">
<stop stop-color="#058DF3"/>
<stop offset="1" stop-color="#122C91"/>
</linearGradient>
<linearGradient id="paint50_linear_115_3464" x1="15.1745" y1="16.5409" x2="42.0795" y2="67.2838" gradientUnits="userSpaceOnUse">
<stop stop-color="#058DF3"/>
<stop offset="1" stop-color="#122C91"/>
</linearGradient>
<linearGradient id="paint51_linear_115_3464" x1="15.4022" y1="16.4155" x2="42.3071" y2="67.1584" gradientUnits="userSpaceOnUse">
<stop stop-color="#058DF3"/>
<stop offset="1" stop-color="#122C91"/>
</linearGradient>
<linearGradient id="paint52_linear_115_3464" x1="15.6244" y1="16.2901" x2="42.5293" y2="67.0273" gradientUnits="userSpaceOnUse">
<stop stop-color="#058DF3"/>
<stop offset="1" stop-color="#122C91"/>
</linearGradient>
<linearGradient id="paint53_linear_115_3464" x1="15.8465" y1="16.1648" x2="42.7514" y2="66.9019" gradientUnits="userSpaceOnUse">
<stop stop-color="#058DF3"/>
<stop offset="1" stop-color="#122C91"/>
</linearGradient>
<linearGradient id="paint54_linear_115_3464" x1="16.0742" y1="16.0395" x2="42.9733" y2="66.7768" gradientUnits="userSpaceOnUse">
<stop stop-color="#058DF3"/>
<stop offset="1" stop-color="#122C91"/>
</linearGradient>
<linearGradient id="paint55_linear_115_3464" x1="16.2964" y1="15.9084" x2="43.2013" y2="66.6513" gradientUnits="userSpaceOnUse">
<stop stop-color="#058DF3"/>
<stop offset="1" stop-color="#122C91"/>
</linearGradient>
<linearGradient id="paint56_linear_115_3464" x1="16.5185" y1="15.7831" x2="43.4234" y2="66.5259" gradientUnits="userSpaceOnUse">
<stop stop-color="#058DF3"/>
<stop offset="1" stop-color="#122C91"/>
</linearGradient>
<linearGradient id="paint57_linear_115_3464" x1="16.7462" y1="15.6634" x2="43.6511" y2="66.4005" gradientUnits="userSpaceOnUse">
<stop stop-color="#058DF3"/>
<stop offset="1" stop-color="#122C91"/>
</linearGradient>
<linearGradient id="paint58_linear_115_3464" x1="16.9684" y1="15.5324" x2="43.8732" y2="66.2752" gradientUnits="userSpaceOnUse">
<stop stop-color="#058DF3"/>
<stop offset="1" stop-color="#122C91"/>
</linearGradient>
<linearGradient id="paint59_linear_115_3464" x1="17.1905" y1="15.4069" x2="44.0954" y2="66.1498" gradientUnits="userSpaceOnUse">
<stop stop-color="#058DF3"/>
<stop offset="1" stop-color="#122C91"/>
</linearGradient>
<linearGradient id="paint60_linear_115_3464" x1="17.4127" y1="15.2816" x2="44.3175" y2="66.0187" gradientUnits="userSpaceOnUse">
<stop stop-color="#058DF3"/>
<stop offset="1" stop-color="#122C91"/>
</linearGradient>
<linearGradient id="paint61_linear_115_3464" x1="17.6293" y1="15.1562" x2="44.5342" y2="65.8991" gradientUnits="userSpaceOnUse">
<stop stop-color="#058DF3"/>
<stop offset="1" stop-color="#122C91"/>
</linearGradient>
<linearGradient id="paint62_linear_115_3464" x1="17.8459" y1="15.0366" x2="44.7451" y2="65.7796" gradientUnits="userSpaceOnUse">
<stop stop-color="#058DF3"/>
<stop offset="1" stop-color="#122C91"/>
</linearGradient>
<linearGradient id="paint63_linear_115_3464" x1="18.0569" y1="14.9169" x2="44.9618" y2="65.6598" gradientUnits="userSpaceOnUse">
<stop stop-color="#058DF3"/>
<stop offset="1" stop-color="#122C91"/>
</linearGradient>
<linearGradient id="paint64_linear_115_3464" x1="18.2679" y1="14.7972" x2="45.1728" y2="65.5401" gradientUnits="userSpaceOnUse">
<stop stop-color="#058DF3"/>
<stop offset="1" stop-color="#122C91"/>
</linearGradient>
<linearGradient id="paint65_linear_115_3464" x1="18.479" y1="14.6776" x2="45.3838" y2="65.4205" gradientUnits="userSpaceOnUse">
<stop stop-color="#058DF3"/>
<stop offset="1" stop-color="#122C91"/>
</linearGradient>
<linearGradient id="paint66_linear_115_3464" x1="18.69" y1="14.5579" x2="45.595" y2="65.3008" gradientUnits="userSpaceOnUse">
<stop stop-color="#058DF3"/>
<stop offset="1" stop-color="#122C91"/>
</linearGradient>
<linearGradient id="paint67_linear_115_3464" x1="18.9121" y1="14.4326" x2="45.8169" y2="65.1754" gradientUnits="userSpaceOnUse">
<stop stop-color="#058DF3"/>
<stop offset="1" stop-color="#122C91"/>
</linearGradient>
<linearGradient id="paint68_linear_115_3464" x1="19.1398" y1="14.3072" x2="46.0447" y2="65.0501" gradientUnits="userSpaceOnUse">
<stop stop-color="#058DF3"/>
<stop offset="1" stop-color="#122C91"/>
</linearGradient>
<linearGradient id="paint69_linear_115_3464" x1="19.3618" y1="14.1818" x2="46.2667" y2="64.919" gradientUnits="userSpaceOnUse">
<stop stop-color="#058DF3"/>
<stop offset="1" stop-color="#122C91"/>
</linearGradient>
<linearGradient id="paint70_linear_115_3464" x1="19.5844" y1="14.0565" x2="46.4892" y2="64.7936" gradientUnits="userSpaceOnUse">
<stop stop-color="#058DF3"/>
<stop offset="1" stop-color="#122C91"/>
</linearGradient>
<linearGradient id="paint71_linear_115_3464" x1="19.8116" y1="13.9254" x2="46.7165" y2="64.6682" gradientUnits="userSpaceOnUse">
<stop stop-color="#058DF3"/>
<stop offset="1" stop-color="#122C91"/>
</linearGradient>
<linearGradient id="paint72_linear_115_3464" x1="20.0342" y1="13.8001" x2="46.939" y2="64.5429" gradientUnits="userSpaceOnUse">
<stop stop-color="#058DF3"/>
<stop offset="1" stop-color="#122C91"/>
</linearGradient>
<linearGradient id="paint73_linear_115_3464" x1="20.2564" y1="13.6747" x2="47.1612" y2="64.4175" gradientUnits="userSpaceOnUse">
<stop stop-color="#058DF3"/>
<stop offset="1" stop-color="#122C91"/>
</linearGradient>
<linearGradient id="paint74_linear_115_3464" x1="20.4839" y1="13.5494" x2="47.3831" y2="64.2924" gradientUnits="userSpaceOnUse">
<stop stop-color="#058DF3"/>
<stop offset="1" stop-color="#122C91"/>
</linearGradient>
<linearGradient id="paint75_linear_115_3464" x1="20.706" y1="13.4239" x2="47.6109" y2="64.1668" gradientUnits="userSpaceOnUse">
<stop stop-color="#058DF3"/>
<stop offset="1" stop-color="#122C91"/>
</linearGradient>
<linearGradient id="paint76_linear_115_3464" x1="20.9282" y1="13.2986" x2="47.833" y2="64.0358" gradientUnits="userSpaceOnUse">
<stop stop-color="#058DF3"/>
<stop offset="1" stop-color="#122C91"/>
</linearGradient>
<linearGradient id="paint77_linear_115_3464" x1="21.1502" y1="13.1732" x2="48.055" y2="63.9103" gradientUnits="userSpaceOnUse">
<stop stop-color="#058DF3"/>
<stop offset="1" stop-color="#122C91"/>
</linearGradient>
<linearGradient id="paint78_linear_115_3464" x1="21.3778" y1="13.0479" x2="48.2826" y2="63.785" gradientUnits="userSpaceOnUse">
<stop stop-color="#058DF3"/>
<stop offset="1" stop-color="#122C91"/>
</linearGradient>
<linearGradient id="paint79_linear_115_3464" x1="21.6" y1="12.9168" x2="48.5049" y2="63.6597" gradientUnits="userSpaceOnUse">
<stop stop-color="#058DF3"/>
<stop offset="1" stop-color="#122C91"/>
</linearGradient>
<linearGradient id="paint80_linear_115_3464" x1="21.8225" y1="12.7915" x2="48.7274" y2="63.5343" gradientUnits="userSpaceOnUse">
<stop stop-color="#058DF3"/>
<stop offset="1" stop-color="#122C91"/>
</linearGradient>
<linearGradient id="paint81_linear_115_3464" x1="22.0498" y1="12.6661" x2="48.9547" y2="63.409" gradientUnits="userSpaceOnUse">
<stop stop-color="#058DF3"/>
<stop offset="1" stop-color="#122C91"/>
</linearGradient>
<linearGradient id="paint82_linear_115_3464" x1="22.2723" y1="12.5408" x2="49.1772" y2="63.2836" gradientUnits="userSpaceOnUse">
<stop stop-color="#058DF3"/>
<stop offset="1" stop-color="#122C91"/>
</linearGradient>
<linearGradient id="paint83_linear_115_3464" x1="22.4943" y1="12.4154" x2="49.3992" y2="63.1583" gradientUnits="userSpaceOnUse">
<stop stop-color="#058DF3"/>
<stop offset="1" stop-color="#122C91"/>
</linearGradient>
<linearGradient id="paint84_linear_115_3464" x1="22.7221" y1="12.29" x2="49.6269" y2="63.0272" gradientUnits="userSpaceOnUse">
<stop stop-color="#058DF3"/>
<stop offset="1" stop-color="#122C91"/>
</linearGradient>
<linearGradient id="paint85_linear_115_3464" x1="22.9441" y1="12.1647" x2="49.849" y2="62.9018" gradientUnits="userSpaceOnUse">
<stop stop-color="#058DF3"/>
<stop offset="1" stop-color="#122C91"/>
</linearGradient>
<linearGradient id="paint86_linear_115_3464" x1="23.1664" y1="12.0336" x2="50.0712" y2="62.7765" gradientUnits="userSpaceOnUse">
<stop stop-color="#058DF3"/>
<stop offset="1" stop-color="#122C91"/>
</linearGradient>
<linearGradient id="paint87_linear_115_3464" x1="23.3939" y1="11.9083" x2="50.2931" y2="62.6513" gradientUnits="userSpaceOnUse">
<stop stop-color="#058DF3"/>
<stop offset="1" stop-color="#122C91"/>
</linearGradient>
<linearGradient id="paint88_linear_115_3464" x1="23.616" y1="11.7829" x2="50.5208" y2="62.5257" gradientUnits="userSpaceOnUse">
<stop stop-color="#058DF3"/>
<stop offset="1" stop-color="#122C91"/>
</linearGradient>
<linearGradient id="paint89_linear_115_3464" x1="23.8382" y1="11.6576" x2="50.743" y2="62.4004" gradientUnits="userSpaceOnUse">
<stop stop-color="#058DF3"/>
<stop offset="1" stop-color="#122C91"/>
</linearGradient>
<linearGradient id="paint90_linear_115_3464" x1="24.0602" y1="11.5322" x2="50.9651" y2="62.275" gradientUnits="userSpaceOnUse">
<stop stop-color="#058DF3"/>
<stop offset="1" stop-color="#122C91"/>
</linearGradient>
<linearGradient id="paint91_linear_115_3464" x1="24.2883" y1="11.4068" x2="51.1931" y2="62.1439" gradientUnits="userSpaceOnUse">
<stop stop-color="#058DF3"/>
<stop offset="1" stop-color="#122C91"/>
</linearGradient>
<linearGradient id="paint92_linear_115_3464" x1="24.5105" y1="11.2814" x2="51.4153" y2="62.0186" gradientUnits="userSpaceOnUse">
<stop stop-color="#058DF3"/>
<stop offset="1" stop-color="#122C91"/>
</linearGradient>
<linearGradient id="paint93_linear_115_3464" x1="24.7325" y1="11.1504" x2="51.6374" y2="61.8932" gradientUnits="userSpaceOnUse">
<stop stop-color="#058DF3"/>
<stop offset="1" stop-color="#122C91"/>
</linearGradient>
<linearGradient id="paint94_linear_115_3464" x1="24.9603" y1="11.025" x2="51.8651" y2="61.7679" gradientUnits="userSpaceOnUse">
<stop stop-color="#058DF3"/>
<stop offset="1" stop-color="#122C91"/>
</linearGradient>
<linearGradient id="paint95_linear_115_3464" x1="25.1823" y1="10.8997" x2="52.0872" y2="61.6425" gradientUnits="userSpaceOnUse">
<stop stop-color="#058DF3"/>
<stop offset="1" stop-color="#122C91"/>
</linearGradient>
<linearGradient id="paint96_linear_115_3464" x1="29.1142" y1="8.60897" x2="56.2214" y2="59.7293" gradientUnits="userSpaceOnUse">
<stop stop-color="#058DF3"/>
<stop offset="1" stop-color="#122C91"/>
</linearGradient>
<clipPath id="clip0_115_3464">
<rect x="0.181641" y="0.958984" width="232" height="59" rx="29.5" fill="white"/>
</clipPath>
</defs>
</svg>
