<svg width="1559" height="890" viewBox="0 0 1559 890" fill="none" xmlns="http://www.w3.org/2000/svg">
<path d="M200.191 66.9765C201.49 35.069 178.474 6.87923 166.803 -3.2272L1747.82 -28.7669L2043.24 866.378L1956.27 889.535L1346.55 767.019C1286.44 696.191 1180.01 651.014 1130.24 628.809C1088.58 607.675 993.43 585.036 951.061 576.358C905.118 563.188 793.175 553.861 742.946 550.844L619.9 543.136L144.064 492.53C123.49 490.364 78.1915 470.873 65.9194 465.279C53.6473 459.684 21.3428 442.9 8.34877 418.717C-4.64523 394.534 -1.75767 374.321 13.041 341.655C24.88 315.523 56.1137 280.475 70.2507 266.218C75.2438 260.623 90.5358 244.2 111.759 223.265C132.983 202.331 157.78 169.425 167.525 155.588C184.129 130.503 200.191 100.364 200.191 66.9765Z" fill="url(#paint0_linear_124_4234)"/>
<defs>
<linearGradient id="paint0_linear_124_4234" x1="840.19" y1="-568.604" x2="1101.77" y2="1016.54" gradientUnits="userSpaceOnUse">
<stop stop-color="#0C216E"/>
<stop offset="1" stop-color="#0C216E" stop-opacity="0"/>
</linearGradient>
</defs>
</svg>
